<?xml version="1.0" encoding="utf-8" standalone="no"?>
<!DOCTYPE svg PUBLIC "-//W3C//DTD SVG 1.1//EN"
  "http://www.w3.org/Graphics/SVG/1.1/DTD/svg11.dtd">
<!-- Created with matplotlib (https://matplotlib.org/) -->
<svg height="325.735409pt" version="1.1" viewBox="0 0 886.2625 325.735409" width="886.2625pt" xmlns="http://www.w3.org/2000/svg" xmlns:xlink="http://www.w3.org/1999/xlink">
 <defs>
  <style type="text/css">
*{stroke-linecap:butt;stroke-linejoin:round;}
  </style>
 </defs>
 <g id="figure_1">
  <g id="patch_1">
   <path d="M 0 325.735409 
L 886.2625 325.735409 
L 886.2625 0 
L 0 0 
z
" style="fill:#ffffff;"/>
  </g>
  <g id="axes_1">
   <g id="patch_2">
    <path d="M 78.775 144.289091 
L 859.975 144.289091 
L 859.975 40.510909 
L 78.775 40.510909 
z
" style="fill:#ffffff;"/>
   </g>
   <g id="matplotlib.axis_1">
    <g id="ytick_1">
     <g id="line2d_1">
      <defs>
       <path d="M 0 0 
L -3.5 0 
" id="mcc61eb076b" style="stroke:#000000;stroke-width:0.8;"/>
      </defs>
      <g>
       <use style="stroke:#000000;stroke-width:0.8;" x="78.775" xlink:href="#mcc61eb076b" y="144.289091"/>
      </g>
     </g>
     <g id="text_1">
      <!-- 0 -->
      <defs>
       <path d="M 31.78125 66.40625 
Q 24.171875 66.40625 20.328125 58.90625 
Q 16.5 51.421875 16.5 36.375 
Q 16.5 21.390625 20.328125 13.890625 
Q 24.171875 6.390625 31.78125 6.390625 
Q 39.453125 6.390625 43.28125 13.890625 
Q 47.125 21.390625 47.125 36.375 
Q 47.125 51.421875 43.28125 58.90625 
Q 39.453125 66.40625 31.78125 66.40625 
z
M 31.78125 74.21875 
Q 44.046875 74.21875 50.515625 64.515625 
Q 56.984375 54.828125 56.984375 36.375 
Q 56.984375 17.96875 50.515625 8.265625 
Q 44.046875 -1.421875 31.78125 -1.421875 
Q 19.53125 -1.421875 13.0625 8.265625 
Q 6.59375 17.96875 6.59375 36.375 
Q 6.59375 54.828125 13.0625 64.515625 
Q 19.53125 74.21875 31.78125 74.21875 
z
" id="DejaVuSans-48"/>
      </defs>
      <g transform="translate(59.05 151.887528)scale(0.2 -0.2)">
       <use xlink:href="#DejaVuSans-48"/>
      </g>
     </g>
    </g>
    <g id="ytick_2">
     <g id="line2d_2">
      <g>
       <use style="stroke:#000000;stroke-width:0.8;" x="78.775" xlink:href="#mcc61eb076b" y="92.4"/>
      </g>
     </g>
     <g id="text_2">
      <!-- 200 -->
      <defs>
       <path d="M 19.1875 8.296875 
L 53.609375 8.296875 
L 53.609375 0 
L 7.328125 0 
L 7.328125 8.296875 
Q 12.9375 14.109375 22.625 23.890625 
Q 32.328125 33.6875 34.8125 36.53125 
Q 39.546875 41.84375 41.421875 45.53125 
Q 43.3125 49.21875 43.3125 52.78125 
Q 43.3125 58.59375 39.234375 62.25 
Q 35.15625 65.921875 28.609375 65.921875 
Q 23.96875 65.921875 18.8125 64.3125 
Q 13.671875 62.703125 7.8125 59.421875 
L 7.8125 69.390625 
Q 13.765625 71.78125 18.9375 73 
Q 24.125 74.21875 28.421875 74.21875 
Q 39.75 74.21875 46.484375 68.546875 
Q 53.21875 62.890625 53.21875 53.421875 
Q 53.21875 48.921875 51.53125 44.890625 
Q 49.859375 40.875 45.40625 35.40625 
Q 44.1875 33.984375 37.640625 27.21875 
Q 31.109375 20.453125 19.1875 8.296875 
z
" id="DejaVuSans-50"/>
      </defs>
      <g transform="translate(33.6 99.998437)scale(0.2 -0.2)">
       <use xlink:href="#DejaVuSans-50"/>
       <use x="63.623047" xlink:href="#DejaVuSans-48"/>
       <use x="127.246094" xlink:href="#DejaVuSans-48"/>
      </g>
     </g>
    </g>
    <g id="ytick_3">
     <g id="line2d_3">
      <g>
       <use style="stroke:#000000;stroke-width:0.8;" x="78.775" xlink:href="#mcc61eb076b" y="40.510909"/>
      </g>
     </g>
     <g id="text_3">
      <!-- 400 -->
      <defs>
       <path d="M 37.796875 64.3125 
L 12.890625 25.390625 
L 37.796875 25.390625 
z
M 35.203125 72.90625 
L 47.609375 72.90625 
L 47.609375 25.390625 
L 58.015625 25.390625 
L 58.015625 17.1875 
L 47.609375 17.1875 
L 47.609375 0 
L 37.796875 0 
L 37.796875 17.1875 
L 4.890625 17.1875 
L 4.890625 26.703125 
z
" id="DejaVuSans-52"/>
      </defs>
      <g transform="translate(33.6 48.109347)scale(0.2 -0.2)">
       <use xlink:href="#DejaVuSans-52"/>
       <use x="63.623047" xlink:href="#DejaVuSans-48"/>
       <use x="127.246094" xlink:href="#DejaVuSans-48"/>
      </g>
     </g>
    </g>
    <g id="text_4">
     <!-- $\rho_{MinD-ATP} [1/\mu m^2]$ -->
     <defs>
      <path d="M 18.796875 44.921875 
Q 22.703125 49.90625 30.953125 54.296875 
Q 34.1875 56 43.0625 56 
Q 53.03125 56 57.71875 48.09375 
Q 62.40625 40.1875 59.90625 27.296875 
Q 57.375 14.40625 49.609375 6.484375 
Q 41.84375 -1.421875 31.890625 -1.421875 
Q 25.875 -1.421875 22.015625 0.984375 
Q 18.171875 3.328125 16.3125 8.203125 
L 10.640625 -20.796875 
L 1.609375 -20.796875 
L 10.890625 26.8125 
Q 13.09375 38.09375 18.796875 44.921875 
z
M 50.59375 27.296875 
Q 52.484375 37.203125 49.515625 42.875 
Q 46.53125 48.484375 39.40625 48.484375 
Q 32.28125 48.484375 27.09375 42.875 
Q 21.921875 37.203125 20.015625 27.296875 
Q 18.0625 17.390625 21.046875 11.71875 
Q 24.03125 6.109375 31.15625 6.109375 
Q 38.28125 6.109375 43.453125 11.71875 
Q 48.640625 17.390625 50.59375 27.296875 
z
" id="DejaVuSans-Oblique-961"/>
      <path d="M 16.890625 72.90625 
L 31.6875 72.90625 
L 40.1875 23.78125 
L 68.40625 72.90625 
L 83.59375 72.90625 
L 69.390625 0 
L 59.8125 0 
L 72.21875 63.921875 
L 43.609375 14.015625 
L 33.984375 14.015625 
L 24.703125 64.109375 
L 12.3125 0 
L 2.6875 0 
z
" id="DejaVuSans-Oblique-77"/>
      <path d="M 18.3125 75.984375 
L 27.296875 75.984375 
L 25.09375 64.59375 
L 16.109375 64.59375 
z
M 14.203125 54.6875 
L 23.1875 54.6875 
L 12.5 0 
L 3.515625 0 
z
" id="DejaVuSans-Oblique-105"/>
      <path d="M 55.71875 33.015625 
L 49.3125 0 
L 40.28125 0 
L 46.6875 32.671875 
Q 47.125 34.96875 47.359375 36.71875 
Q 47.609375 38.484375 47.609375 39.5 
Q 47.609375 43.609375 45.015625 45.890625 
Q 42.4375 48.1875 37.796875 48.1875 
Q 30.5625 48.1875 25.34375 43.375 
Q 20.125 38.578125 18.5 30.328125 
L 12.5 0 
L 3.515625 0 
L 14.109375 54.6875 
L 23.09375 54.6875 
L 21.296875 46.09375 
Q 25.046875 50.828125 30.3125 53.40625 
Q 35.59375 56 41.40625 56 
Q 48.640625 56 52.609375 52.09375 
Q 56.59375 48.1875 56.59375 41.109375 
Q 56.59375 39.359375 56.375 37.359375 
Q 56.15625 35.359375 55.71875 33.015625 
z
" id="DejaVuSans-Oblique-110"/>
      <path d="M 16.890625 72.90625 
L 38.09375 72.90625 
Q 54.984375 72.90625 63.59375 65.75 
Q 72.21875 58.59375 72.21875 44.484375 
Q 72.21875 35.15625 68.9375 26.53125 
Q 65.671875 17.921875 59.90625 12.015625 
Q 54.109375 5.953125 45.171875 2.96875 
Q 36.234375 0 24.03125 0 
L 2.6875 0 
z
M 25.203125 64.796875 
L 14.203125 8.109375 
L 27.09375 8.109375 
Q 43.65625 8.109375 52.734375 17.625 
Q 61.8125 27.15625 61.8125 44.484375 
Q 61.8125 54.984375 55.953125 59.890625 
Q 50.09375 64.796875 37.59375 64.796875 
z
" id="DejaVuSans-Oblique-68"/>
      <path d="M 10.59375 35.5 
L 73.1875 35.5 
L 73.1875 27.203125 
L 10.59375 27.203125 
z
" id="DejaVuSans-8722"/>
      <path d="M 36.8125 72.90625 
L 48 72.90625 
L 61.53125 0 
L 51.21875 0 
L 48.1875 18.703125 
L 15.375 18.703125 
L 5.078125 0 
L -5.328125 0 
z
M 40.375 63.1875 
L 19.921875 26.90625 
L 46.6875 26.90625 
z
" id="DejaVuSans-Oblique-65"/>
      <path d="M 5.90625 72.90625 
L 67.578125 72.90625 
L 66.015625 64.59375 
L 39.984375 64.59375 
L 27.484375 0 
L 17.578125 0 
L 30.078125 64.59375 
L 4.296875 64.59375 
z
" id="DejaVuSans-Oblique-84"/>
      <path d="M 16.890625 72.90625 
L 39.703125 72.90625 
Q 49.65625 72.90625 54.875 68.265625 
Q 60.109375 63.625 60.109375 54.6875 
Q 60.109375 42.671875 52.390625 35.984375 
Q 44.671875 29.296875 30.71875 29.296875 
L 18.3125 29.296875 
L 12.59375 0 
L 2.6875 0 
z
M 25.203125 64.796875 
L 19.921875 37.40625 
L 32.328125 37.40625 
Q 40.71875 37.40625 45.203125 41.703125 
Q 49.703125 46 49.703125 54 
Q 49.703125 59.125 46.65625 61.953125 
Q 43.609375 64.796875 38.09375 64.796875 
z
" id="DejaVuSans-Oblique-80"/>
      <path d="M 8.59375 75.984375 
L 29.296875 75.984375 
L 29.296875 69 
L 17.578125 69 
L 17.578125 -6.203125 
L 29.296875 -6.203125 
L 29.296875 -13.1875 
L 8.59375 -13.1875 
z
" id="DejaVuSans-91"/>
      <path d="M 12.40625 8.296875 
L 28.515625 8.296875 
L 28.515625 63.921875 
L 10.984375 60.40625 
L 10.984375 69.390625 
L 28.421875 72.90625 
L 38.28125 72.90625 
L 38.28125 8.296875 
L 54.390625 8.296875 
L 54.390625 0 
L 12.40625 0 
z
" id="DejaVuSans-49"/>
      <path d="M 25.390625 72.90625 
L 33.6875 72.90625 
L 8.296875 -9.28125 
L 0 -9.28125 
z
" id="DejaVuSans-47"/>
      <path d="M -1.3125 -20.796875 
L 13.375 54.6875 
L 22.40625 54.6875 
L 15.765625 20.65625 
Q 15.578125 19.625 15.421875 18.359375 
Q 15.28125 17.09375 15.28125 15.828125 
Q 15.28125 11.28125 18.140625 8.828125 
Q 21 6.390625 26.3125 6.390625 
Q 33.546875 6.390625 37.984375 10.484375 
Q 42.4375 14.59375 44 22.796875 
L 50.203125 54.6875 
L 59.1875 54.6875 
L 51.03125 12.640625 
Q 50.828125 11.71875 50.75 11.03125 
Q 50.6875 10.359375 50.6875 9.8125 
Q 50.6875 8.296875 51.296875 7.59375 
Q 51.90625 6.890625 53.21875 6.890625 
Q 53.71875 6.890625 54.5625 7.125 
Q 55.421875 7.375 56.984375 8.015625 
L 55.609375 0.78125 
Q 53.46875 -0.296875 51.515625 -0.859375 
Q 49.5625 -1.421875 47.703125 -1.421875 
Q 44.484375 -1.421875 42.65625 0.625 
Q 40.828125 2.6875 40.828125 6.296875 
Q 38.09375 2.390625 34.296875 0.484375 
Q 30.515625 -1.421875 25.390625 -1.421875 
Q 20.84375 -1.421875 17.453125 0.671875 
Q 14.0625 2.78125 12.984375 6.203125 
L 7.71875 -20.796875 
z
" id="DejaVuSans-Oblique-956"/>
      <path d="M 89.796875 33.015625 
L 83.40625 0 
L 74.421875 0 
L 80.71875 32.71875 
Q 81.109375 34.8125 81.296875 36.328125 
Q 81.5 37.84375 81.5 38.921875 
Q 81.5 43.3125 79.046875 45.75 
Q 76.609375 48.1875 72.21875 48.1875 
Q 65.671875 48.1875 60.546875 43.28125 
Q 55.421875 38.375 53.90625 30.515625 
L 47.90625 0 
L 38.921875 0 
L 45.3125 32.71875 
Q 45.703125 34.515625 45.890625 36.046875 
Q 46.09375 37.59375 46.09375 38.8125 
Q 46.09375 43.265625 43.65625 45.71875 
Q 41.21875 48.1875 36.921875 48.1875 
Q 30.28125 48.1875 25.140625 43.28125 
Q 20.015625 38.375 18.5 30.515625 
L 12.5 0 
L 3.515625 0 
L 14.203125 54.6875 
L 23.1875 54.6875 
L 21.484375 46.1875 
Q 25.140625 50.984375 30.046875 53.484375 
Q 34.96875 56 40.578125 56 
Q 46.53125 56 50.359375 52.875 
Q 54.203125 49.75 54.984375 44.1875 
Q 59.078125 49.953125 64.46875 52.96875 
Q 69.875 56 75.875 56 
Q 82.90625 56 86.734375 51.953125 
Q 90.578125 47.90625 90.578125 40.484375 
Q 90.578125 38.875 90.375 36.9375 
Q 90.1875 35.015625 89.796875 33.015625 
z
" id="DejaVuSans-Oblique-109"/>
      <path d="M 30.421875 75.984375 
L 30.421875 -13.1875 
L 9.71875 -13.1875 
L 9.71875 -6.203125 
L 21.390625 -6.203125 
L 21.390625 69 
L 9.71875 69 
L 9.71875 75.984375 
z
" id="DejaVuSans-93"/>
     </defs>
     <g transform="translate(25.4 177.6)rotate(-90)scale(0.2 -0.2)">
      <use transform="translate(0 0.765625)" xlink:href="#DejaVuSans-Oblique-961"/>
      <use transform="translate(63.476562 -15.640625)scale(0.7)" xlink:href="#DejaVuSans-Oblique-77"/>
      <use transform="translate(123.87207 -15.640625)scale(0.7)" xlink:href="#DejaVuSans-Oblique-105"/>
      <use transform="translate(143.320312 -15.640625)scale(0.7)" xlink:href="#DejaVuSans-Oblique-110"/>
      <use transform="translate(187.685547 -15.640625)scale(0.7)" xlink:href="#DejaVuSans-Oblique-68"/>
      <use transform="translate(255.224609 -15.640625)scale(0.7)" xlink:href="#DejaVuSans-8722"/>
      <use transform="translate(327.514648 -15.640625)scale(0.7)" xlink:href="#DejaVuSans-Oblique-65"/>
      <use transform="translate(375.400391 -15.640625)scale(0.7)" xlink:href="#DejaVuSans-Oblique-84"/>
      <use transform="translate(418.15918 -15.640625)scale(0.7)" xlink:href="#DejaVuSans-Oblique-80"/>
      <use transform="translate(463.105469 0.765625)" xlink:href="#DejaVuSans-91"/>
      <use transform="translate(502.119141 0.765625)" xlink:href="#DejaVuSans-49"/>
      <use transform="translate(565.742188 0.765625)" xlink:href="#DejaVuSans-47"/>
      <use transform="translate(599.433594 0.765625)" xlink:href="#DejaVuSans-Oblique-956"/>
      <use transform="translate(663.056641 0.765625)" xlink:href="#DejaVuSans-Oblique-109"/>
      <use transform="translate(765.118646 39.046875)scale(0.7)" xlink:href="#DejaVuSans-50"/>
      <use transform="translate(812.389154 0.765625)" xlink:href="#DejaVuSans-93"/>
     </g>
    </g>
   </g>
   <g id="line2d_4">
    <path clip-path="url(#pd75cea78a8)" d="M 78.775 144.289091 
L 82.681 131.251957 
L 86.587 130.239082 
L 90.493 131.738676 
L 94.399 132.512343 
L 98.305 132.76167 
L 102.211 132.54659 
L 106.117 131.955832 
L 113.929 130.3055 
L 117.835 129.700732 
L 121.741 129.527682 
L 125.647 129.858475 
L 129.553 130.589074 
L 137.365 132.26561 
L 141.271 132.749476 
L 145.177 132.840282 
L 149.083 132.538028 
L 152.989 131.917694 
L 160.801 130.349865 
L 164.707 129.826045 
L 168.613 129.722526 
L 172.519 130.081858 
L 176.425 130.786512 
L 180.331 131.607916 
L 184.237 132.304786 
L 188.143 132.705889 
L 192.049 132.735466 
L 195.955 132.403116 
L 199.861 131.788749 
L 207.673 130.33819 
L 211.579 129.899987 
L 215.485 129.865999 
L 219.391 130.25387 
L 231.109 132.316462 
L 235.015 132.646217 
L 238.921 132.624683 
L 242.827 132.27054 
L 250.639 130.960859 
L 254.545 130.334817 
L 258.451 129.975226 
L 262.357 130.00117 
L 266.263 130.409537 
L 277.981 132.316462 
L 281.887 132.582134 
L 285.793 132.517013 
L 289.699 132.147044 
L 301.417 130.34286 
L 305.323 130.054875 
L 309.229 130.131931 
L 313.135 130.552751 
L 320.947 131.825072 
L 324.853 132.306603 
L 328.759 132.513381 
L 332.665 132.409862 
L 336.571 132.028218 
L 348.289 130.352978 
L 352.195 130.130115 
L 356.101 130.251795 
L 360.007 130.682215 
L 367.819 131.878518 
L 371.725 132.30323 
L 375.631 132.462529 
L 379.537 132.330212 
L 383.443 131.944157 
L 395.161 130.386187 
L 399.067 130.205873 
L 402.973 130.342082 
L 406.879 130.748892 
L 414.691 131.817288 
L 418.597 132.174545 
L 422.503 132.286366 
L 426.409 132.138222 
L 430.315 131.776815 
L 438.127 130.853189 
L 442.033 130.576361 
L 445.939 130.579215 
L 449.845 130.881728 
L 461.563 132.436066 
L 465.469 132.650627 
L 469.375 132.54633 
L 473.281 132.106311 
L 477.187 131.359108 
L 481.093 130.377366 
L 488.905 128.220077 
L 492.811 127.393484 
L 496.717 126.99316 
L 500.623 127.182295 
L 504.529 128.053513 
L 508.435 129.58476 
L 512.341 131.606878 
L 516.247 133.804641 
L 520.153 135.797182 
L 524.059 137.288215 
L 527.965 138.170329 
L 531.871 138.469989 
L 535.777 138.210543 
L 539.683 137.305338 
L 543.589 135.501933 
L 547.495 132.408565 
L 551.401 127.669534 
L 555.307 121.043297 
L 559.213 111.780575 
L 563.119 98.247901 
L 567.025 80.590043 
L 570.931 66.489182 
L 574.837 74.70582 
L 578.743 115.716363 
L 582.649 139.652022 
L 586.555 141.536894 
L 590.461 141.661687 
L 594.367 141.123856 
L 598.273 139.623743 
L 602.179 136.086463 
L 606.085 129.198446 
L 609.991 119.270247 
L 613.897 106.638367 
L 617.803 88.440862 
L 621.709 64.281302 
L 625.615 46.239465 
L 629.521 62.641606 
L 633.427 120.629222 
L 637.333 140.360049 
L 641.239 141.556871 
L 645.145 141.572438 
L 649.051 140.895804 
L 652.957 139.042844 
L 656.863 134.680269 
L 660.769 126.665221 
L 664.675 115.846086 
L 668.581 101.833437 
L 672.487 81.402107 
L 676.393 56.39416 
L 680.299 43.997856 
L 684.205 74.404863 
L 688.111 131.595203 
L 692.017 140.902809 
L 695.923 141.609798 
L 699.829 141.451795 
L 703.735 140.541661 
L 707.641 138.175518 
L 711.547 132.863373 
L 715.453 123.932741 
L 719.359 112.457728 
L 723.265 96.984401 
L 727.171 74.651336 
L 731.077 50.468426 
L 734.983 46.693494 
L 738.889 90.947105 
L 742.795 137.298852 
L 746.701 141.233602 
L 750.607 141.628737 
L 754.513 141.293015 
L 758.419 140.09749 
L 762.325 137.100376 
L 766.231 130.781582 
L 770.137 121.064312 
L 774.043 108.843653 
L 777.949 91.663175 
L 781.855 67.750087 
L 785.761 46.076014 
L 789.667 53.356054 
L 793.573 108.628313 
L 797.479 139.558881 
L 801.385 141.437785 
L 805.291 141.602274 
L 809.197 141.078194 
L 813.103 139.530342 
L 817.009 135.777204 
L 820.915 128.445016 
L 824.821 118.048778 
L 828.727 104.871543 
L 832.633 85.802302 
L 836.539 60.900727 
L 840.445 43.772138 
L 844.351 64.115257 
L 848.257 123.916137 
L 852.163 140.516235 
L 856.069 141.558687 
L 859.975 141.530407 
L 863.881 140.794361 
L 867.787 138.807787 
L 871.693 134.180837 
L 875.599 125.88403 
L 879.505 114.867976 
L 883.411 100.455781 
L 887.2625 79.741595 
L 887.2625 79.741595 
" style="fill:none;stroke:#1f77b4;stroke-linecap:square;stroke-width:1.5;"/>
   </g>
   <g id="line2d_5">
    <path clip-path="url(#pd75cea78a8)" d="M 78.775 144.289091 
L 82.681 131.251957 
L 86.587 130.239082 
L 90.493 131.738676 
L 94.399 132.512343 
L 98.305 132.76167 
L 102.211 132.54659 
L 106.117 131.955832 
L 113.929 130.3055 
L 117.835 129.700732 
L 121.741 129.527682 
L 125.647 129.858475 
L 129.553 130.589074 
L 137.365 132.26561 
L 141.271 132.749476 
L 145.177 132.840282 
L 149.083 132.538028 
L 152.989 131.917694 
L 160.801 130.349865 
L 164.707 129.826045 
L 168.613 129.722526 
L 172.519 130.081858 
L 176.425 130.786512 
L 180.331 131.607916 
L 184.237 132.304786 
L 188.143 132.705889 
L 192.049 132.735466 
L 195.955 132.403116 
L 199.861 131.788749 
L 207.673 130.33819 
L 211.579 129.899987 
L 215.485 129.865999 
L 219.391 130.25387 
L 231.109 132.316462 
L 235.015 132.645957 
L 238.921 132.624683 
L 242.827 132.27054 
L 250.639 130.961118 
L 254.545 130.335077 
L 258.451 129.975485 
L 262.357 130.001689 
L 266.263 130.409797 
L 277.981 132.316721 
L 281.887 132.581874 
L 285.793 132.516494 
L 289.699 132.146265 
L 301.417 130.340784 
L 305.323 130.05254 
L 309.229 130.129855 
L 313.135 130.550935 
L 320.947 131.825591 
L 324.853 132.308419 
L 328.759 132.517013 
L 332.665 132.415051 
L 336.571 132.034963 
L 348.289 130.362318 
L 352.195 130.137898 
L 356.101 130.255946 
L 360.007 130.680398 
L 367.819 131.860875 
L 371.725 132.278323 
L 375.631 132.431136 
L 379.537 132.294149 
L 383.443 131.906019 
L 395.161 130.37555 
L 399.067 130.223774 
L 402.973 130.398381 
L 406.879 130.848779 
L 414.691 131.988263 
L 418.597 132.360308 
L 422.503 132.467978 
L 426.409 132.293111 
L 430.315 131.876442 
L 442.033 130.243752 
L 445.939 130.009991 
L 449.845 130.069923 
L 453.751 130.392673 
L 465.469 131.787712 
L 469.375 132.037298 
L 477.187 132.11124 
L 484.999 132.187777 
L 488.905 132.455524 
L 500.623 133.645601 
L 504.529 133.645341 
L 508.435 133.195982 
L 512.341 132.184923 
L 516.247 130.490484 
L 520.153 127.958037 
L 524.059 124.392738 
L 527.965 119.604931 
L 531.871 113.599288 
L 535.777 107.074235 
L 539.683 102.310816 
L 543.589 103.742955 
L 547.495 115.646313 
L 551.401 132.882053 
L 555.307 140.296485 
L 559.213 141.456206 
L 563.119 141.402501 
L 567.025 140.723791 
L 570.931 139.147141 
L 574.837 135.814565 
L 578.743 129.690614 
L 582.649 120.7893 
L 586.555 109.245793 
L 590.461 92.703551 
L 594.367 70.344542 
L 598.273 51.822731 
L 602.179 62.343244 
L 606.085 115.059966 
L 609.991 139.985929 
L 613.897 141.536894 
L 617.803 141.628478 
L 621.709 141.044466 
L 625.615 139.400879 
L 629.521 135.478064 
L 633.427 127.984501 
L 637.333 117.529887 
L 641.239 104.178824 
L 645.145 84.790465 
L 649.051 59.945968 
L 652.957 44.259896 
L 656.863 67.539937 
L 660.769 126.692462 
L 664.675 140.664638 
L 668.581 141.58515 
L 672.487 141.514841 
L 676.393 140.727683 
L 680.299 138.632402 
L 684.205 133.804381 
L 688.111 125.314288 
L 692.017 114.167474 
L 695.923 99.456916 
L 699.829 78.044883 
L 703.735 53.257464 
L 707.641 44.851432 
L 711.547 82.346489 
L 715.453 135.057762 
L 719.359 141.088312 
L 723.265 141.624846 
L 727.171 141.378632 
L 731.077 140.333067 
L 734.983 137.666746 
L 738.889 131.855686 
L 742.795 122.516428 
L 746.701 110.68831 
L 750.607 94.389947 
L 758.419 48.052988 
L 762.325 49.518855 
L 766.231 99.848679 
L 770.137 138.68948 
L 774.043 141.348017 
L 777.949 141.621213 
L 781.855 141.193388 
L 785.761 139.831299 
L 789.667 136.47174 
L 793.573 129.643654 
L 797.479 119.575874 
L 801.385 106.90819 
L 805.291 88.798897 
L 809.197 64.296868 
L 813.103 44.620525 
L 817.009 58.22325 
L 820.915 116.808628 
L 824.821 140.126029 
L 828.727 141.507057 
L 832.633 141.572178 
L 836.539 140.945877 
L 840.445 139.190728 
L 844.351 135.014175 
L 848.257 127.190338 
L 852.163 116.481727 
L 856.069 102.723335 
L 859.975 82.681173 
L 863.881 57.610959 
L 867.787 43.619066 
L 871.693 70.974994 
L 875.599 129.587095 
L 879.505 140.798512 
L 883.411 141.595269 
L 887.2625 141.478357 
L 887.2625 141.478357 
" style="fill:none;stroke:#ff7f0e;stroke-linecap:square;stroke-width:1.5;"/>
   </g>
   <g id="patch_3">
    <path d="M 78.775 144.289091 
L 78.775 40.510909 
" style="fill:none;stroke:#000000;stroke-linecap:square;stroke-linejoin:miter;stroke-width:0.8;"/>
   </g>
   <g id="patch_4">
    <path d="M 859.975 144.289091 
L 859.975 40.510909 
" style="fill:none;stroke:#000000;stroke-linecap:square;stroke-linejoin:miter;stroke-width:0.8;"/>
   </g>
   <g id="patch_5">
    <path d="M 78.775 144.289091 
L 859.975 144.289091 
" style="fill:none;stroke:#000000;stroke-linecap:square;stroke-linejoin:miter;stroke-width:0.8;"/>
   </g>
   <g id="patch_6">
    <path d="M 78.775 40.510909 
L 859.975 40.510909 
" style="fill:none;stroke:#000000;stroke-linecap:square;stroke-linejoin:miter;stroke-width:0.8;"/>
   </g>
  </g>
  <g id="axes_2">
   <g id="patch_7">
    <path d="M 78.775 268.822909 
L 859.975 268.822909 
L 859.975 165.044727 
L 78.775 165.044727 
z
" style="fill:#ffffff;"/>
   </g>
   <g id="matplotlib.axis_2">
    <g id="xtick_1">
     <g id="line2d_6">
      <defs>
       <path d="M 0 0 
L 0 3.5 
" id="m28e568323d" style="stroke:#000000;stroke-width:0.8;"/>
      </defs>
      <g>
       <use style="stroke:#000000;stroke-width:0.8;" x="78.775" xlink:href="#m28e568323d" y="268.822909"/>
      </g>
     </g>
     <g id="text_5">
      <!-- 0 -->
      <g transform="translate(72.4125 291.019784)scale(0.2 -0.2)">
       <use xlink:href="#DejaVuSans-48"/>
      </g>
     </g>
    </g>
    <g id="xtick_2">
     <g id="line2d_7">
      <g>
       <use style="stroke:#000000;stroke-width:0.8;" x="208.975" xlink:href="#m28e568323d" y="268.822909"/>
      </g>
     </g>
     <g id="text_6">
      <!-- 100 -->
      <g transform="translate(189.8875 291.019784)scale(0.2 -0.2)">
       <use xlink:href="#DejaVuSans-49"/>
       <use x="63.623047" xlink:href="#DejaVuSans-48"/>
       <use x="127.246094" xlink:href="#DejaVuSans-48"/>
      </g>
     </g>
    </g>
    <g id="xtick_3">
     <g id="line2d_8">
      <g>
       <use style="stroke:#000000;stroke-width:0.8;" x="339.175" xlink:href="#m28e568323d" y="268.822909"/>
      </g>
     </g>
     <g id="text_7">
      <!-- 200 -->
      <g transform="translate(320.0875 291.019784)scale(0.2 -0.2)">
       <use xlink:href="#DejaVuSans-50"/>
       <use x="63.623047" xlink:href="#DejaVuSans-48"/>
       <use x="127.246094" xlink:href="#DejaVuSans-48"/>
      </g>
     </g>
    </g>
    <g id="xtick_4">
     <g id="line2d_9">
      <g>
       <use style="stroke:#000000;stroke-width:0.8;" x="469.375" xlink:href="#m28e568323d" y="268.822909"/>
      </g>
     </g>
     <g id="text_8">
      <!-- 300 -->
      <defs>
       <path d="M 40.578125 39.3125 
Q 47.65625 37.796875 51.625 33 
Q 55.609375 28.21875 55.609375 21.1875 
Q 55.609375 10.40625 48.1875 4.484375 
Q 40.765625 -1.421875 27.09375 -1.421875 
Q 22.515625 -1.421875 17.65625 -0.515625 
Q 12.796875 0.390625 7.625 2.203125 
L 7.625 11.71875 
Q 11.71875 9.328125 16.59375 8.109375 
Q 21.484375 6.890625 26.8125 6.890625 
Q 36.078125 6.890625 40.9375 10.546875 
Q 45.796875 14.203125 45.796875 21.1875 
Q 45.796875 27.640625 41.28125 31.265625 
Q 36.765625 34.90625 28.71875 34.90625 
L 20.21875 34.90625 
L 20.21875 43.015625 
L 29.109375 43.015625 
Q 36.375 43.015625 40.234375 45.921875 
Q 44.09375 48.828125 44.09375 54.296875 
Q 44.09375 59.90625 40.109375 62.90625 
Q 36.140625 65.921875 28.71875 65.921875 
Q 24.65625 65.921875 20.015625 65.03125 
Q 15.375 64.15625 9.8125 62.3125 
L 9.8125 71.09375 
Q 15.4375 72.65625 20.34375 73.4375 
Q 25.25 74.21875 29.59375 74.21875 
Q 40.828125 74.21875 47.359375 69.109375 
Q 53.90625 64.015625 53.90625 55.328125 
Q 53.90625 49.265625 50.4375 45.09375 
Q 46.96875 40.921875 40.578125 39.3125 
z
" id="DejaVuSans-51"/>
      </defs>
      <g transform="translate(450.2875 291.019784)scale(0.2 -0.2)">
       <use xlink:href="#DejaVuSans-51"/>
       <use x="63.623047" xlink:href="#DejaVuSans-48"/>
       <use x="127.246094" xlink:href="#DejaVuSans-48"/>
      </g>
     </g>
    </g>
    <g id="xtick_5">
     <g id="line2d_10">
      <g>
       <use style="stroke:#000000;stroke-width:0.8;" x="599.575" xlink:href="#m28e568323d" y="268.822909"/>
      </g>
     </g>
     <g id="text_9">
      <!-- 400 -->
      <g transform="translate(580.4875 291.019784)scale(0.2 -0.2)">
       <use xlink:href="#DejaVuSans-52"/>
       <use x="63.623047" xlink:href="#DejaVuSans-48"/>
       <use x="127.246094" xlink:href="#DejaVuSans-48"/>
      </g>
     </g>
    </g>
    <g id="xtick_6">
     <g id="line2d_11">
      <g>
       <use style="stroke:#000000;stroke-width:0.8;" x="729.775" xlink:href="#m28e568323d" y="268.822909"/>
      </g>
     </g>
     <g id="text_10">
      <!-- 500 -->
      <defs>
       <path d="M 10.796875 72.90625 
L 49.515625 72.90625 
L 49.515625 64.59375 
L 19.828125 64.59375 
L 19.828125 46.734375 
Q 21.96875 47.46875 24.109375 47.828125 
Q 26.265625 48.1875 28.421875 48.1875 
Q 40.625 48.1875 47.75 41.5 
Q 54.890625 34.8125 54.890625 23.390625 
Q 54.890625 11.625 47.5625 5.09375 
Q 40.234375 -1.421875 26.90625 -1.421875 
Q 22.3125 -1.421875 17.546875 -0.640625 
Q 12.796875 0.140625 7.71875 1.703125 
L 7.71875 11.625 
Q 12.109375 9.234375 16.796875 8.0625 
Q 21.484375 6.890625 26.703125 6.890625 
Q 35.15625 6.890625 40.078125 11.328125 
Q 45.015625 15.765625 45.015625 23.390625 
Q 45.015625 31 40.078125 35.4375 
Q 35.15625 39.890625 26.703125 39.890625 
Q 22.75 39.890625 18.8125 39.015625 
Q 14.890625 38.140625 10.796875 36.28125 
z
" id="DejaVuSans-53"/>
      </defs>
      <g transform="translate(710.6875 291.019784)scale(0.2 -0.2)">
       <use xlink:href="#DejaVuSans-53"/>
       <use x="63.623047" xlink:href="#DejaVuSans-48"/>
       <use x="127.246094" xlink:href="#DejaVuSans-48"/>
      </g>
     </g>
    </g>
    <g id="xtick_7">
     <g id="line2d_12">
      <g>
       <use style="stroke:#000000;stroke-width:0.8;" x="859.975" xlink:href="#m28e568323d" y="268.822909"/>
      </g>
     </g>
     <g id="text_11">
      <!-- 600 -->
      <defs>
       <path d="M 33.015625 40.375 
Q 26.375 40.375 22.484375 35.828125 
Q 18.609375 31.296875 18.609375 23.390625 
Q 18.609375 15.53125 22.484375 10.953125 
Q 26.375 6.390625 33.015625 6.390625 
Q 39.65625 6.390625 43.53125 10.953125 
Q 47.40625 15.53125 47.40625 23.390625 
Q 47.40625 31.296875 43.53125 35.828125 
Q 39.65625 40.375 33.015625 40.375 
z
M 52.59375 71.296875 
L 52.59375 62.3125 
Q 48.875 64.0625 45.09375 64.984375 
Q 41.3125 65.921875 37.59375 65.921875 
Q 27.828125 65.921875 22.671875 59.328125 
Q 17.53125 52.734375 16.796875 39.40625 
Q 19.671875 43.65625 24.015625 45.921875 
Q 28.375 48.1875 33.59375 48.1875 
Q 44.578125 48.1875 50.953125 41.515625 
Q 57.328125 34.859375 57.328125 23.390625 
Q 57.328125 12.15625 50.6875 5.359375 
Q 44.046875 -1.421875 33.015625 -1.421875 
Q 20.359375 -1.421875 13.671875 8.265625 
Q 6.984375 17.96875 6.984375 36.375 
Q 6.984375 53.65625 15.1875 63.9375 
Q 23.390625 74.21875 37.203125 74.21875 
Q 40.921875 74.21875 44.703125 73.484375 
Q 48.484375 72.75 52.59375 71.296875 
z
" id="DejaVuSans-54"/>
      </defs>
      <g transform="translate(840.8875 291.019784)scale(0.2 -0.2)">
       <use xlink:href="#DejaVuSans-54"/>
       <use x="63.623047" xlink:href="#DejaVuSans-48"/>
       <use x="127.246094" xlink:href="#DejaVuSans-48"/>
      </g>
     </g>
    </g>
    <g id="text_12">
     <!-- time [s] -->
     <defs>
      <path d="M 18.3125 70.21875 
L 18.3125 54.6875 
L 36.8125 54.6875 
L 36.8125 47.703125 
L 18.3125 47.703125 
L 18.3125 18.015625 
Q 18.3125 11.328125 20.140625 9.421875 
Q 21.96875 7.515625 27.59375 7.515625 
L 36.8125 7.515625 
L 36.8125 0 
L 27.59375 0 
Q 17.1875 0 13.234375 3.875 
Q 9.28125 7.765625 9.28125 18.015625 
L 9.28125 47.703125 
L 2.6875 47.703125 
L 2.6875 54.6875 
L 9.28125 54.6875 
L 9.28125 70.21875 
z
" id="DejaVuSans-116"/>
      <path d="M 9.421875 54.6875 
L 18.40625 54.6875 
L 18.40625 0 
L 9.421875 0 
z
M 9.421875 75.984375 
L 18.40625 75.984375 
L 18.40625 64.59375 
L 9.421875 64.59375 
z
" id="DejaVuSans-105"/>
      <path d="M 52 44.1875 
Q 55.375 50.25 60.0625 53.125 
Q 64.75 56 71.09375 56 
Q 79.640625 56 84.28125 50.015625 
Q 88.921875 44.046875 88.921875 33.015625 
L 88.921875 0 
L 79.890625 0 
L 79.890625 32.71875 
Q 79.890625 40.578125 77.09375 44.375 
Q 74.3125 48.1875 68.609375 48.1875 
Q 61.625 48.1875 57.5625 43.546875 
Q 53.515625 38.921875 53.515625 30.90625 
L 53.515625 0 
L 44.484375 0 
L 44.484375 32.71875 
Q 44.484375 40.625 41.703125 44.40625 
Q 38.921875 48.1875 33.109375 48.1875 
Q 26.21875 48.1875 22.15625 43.53125 
Q 18.109375 38.875 18.109375 30.90625 
L 18.109375 0 
L 9.078125 0 
L 9.078125 54.6875 
L 18.109375 54.6875 
L 18.109375 46.1875 
Q 21.1875 51.21875 25.484375 53.609375 
Q 29.78125 56 35.6875 56 
Q 41.65625 56 45.828125 52.96875 
Q 50 49.953125 52 44.1875 
z
" id="DejaVuSans-109"/>
      <path d="M 56.203125 29.59375 
L 56.203125 25.203125 
L 14.890625 25.203125 
Q 15.484375 15.921875 20.484375 11.0625 
Q 25.484375 6.203125 34.421875 6.203125 
Q 39.59375 6.203125 44.453125 7.46875 
Q 49.3125 8.734375 54.109375 11.28125 
L 54.109375 2.78125 
Q 49.265625 0.734375 44.1875 -0.34375 
Q 39.109375 -1.421875 33.890625 -1.421875 
Q 20.796875 -1.421875 13.15625 6.1875 
Q 5.515625 13.8125 5.515625 26.8125 
Q 5.515625 40.234375 12.765625 48.109375 
Q 20.015625 56 32.328125 56 
Q 43.359375 56 49.78125 48.890625 
Q 56.203125 41.796875 56.203125 29.59375 
z
M 47.21875 32.234375 
Q 47.125 39.59375 43.09375 43.984375 
Q 39.0625 48.390625 32.421875 48.390625 
Q 24.90625 48.390625 20.390625 44.140625 
Q 15.875 39.890625 15.1875 32.171875 
z
" id="DejaVuSans-101"/>
      <path id="DejaVuSans-32"/>
      <path d="M 44.28125 53.078125 
L 44.28125 44.578125 
Q 40.484375 46.53125 36.375 47.5 
Q 32.28125 48.484375 27.875 48.484375 
Q 21.1875 48.484375 17.84375 46.4375 
Q 14.5 44.390625 14.5 40.28125 
Q 14.5 37.15625 16.890625 35.375 
Q 19.28125 33.59375 26.515625 31.984375 
L 29.59375 31.296875 
Q 39.15625 29.25 43.1875 25.515625 
Q 47.21875 21.78125 47.21875 15.09375 
Q 47.21875 7.46875 41.1875 3.015625 
Q 35.15625 -1.421875 24.609375 -1.421875 
Q 20.21875 -1.421875 15.453125 -0.5625 
Q 10.6875 0.296875 5.421875 2 
L 5.421875 11.28125 
Q 10.40625 8.6875 15.234375 7.390625 
Q 20.0625 6.109375 24.8125 6.109375 
Q 31.15625 6.109375 34.5625 8.28125 
Q 37.984375 10.453125 37.984375 14.40625 
Q 37.984375 18.0625 35.515625 20.015625 
Q 33.0625 21.96875 24.703125 23.78125 
L 21.578125 24.515625 
Q 13.234375 26.265625 9.515625 29.90625 
Q 5.8125 33.546875 5.8125 39.890625 
Q 5.8125 47.609375 11.28125 51.796875 
Q 16.75 56 26.8125 56 
Q 31.78125 56 36.171875 55.265625 
Q 40.578125 54.546875 44.28125 53.078125 
z
" id="DejaVuSans-115"/>
     </defs>
     <g transform="translate(430.592188 314.376034)scale(0.2 -0.2)">
      <use xlink:href="#DejaVuSans-116"/>
      <use x="39.208984" xlink:href="#DejaVuSans-105"/>
      <use x="66.992188" xlink:href="#DejaVuSans-109"/>
      <use x="164.404297" xlink:href="#DejaVuSans-101"/>
      <use x="225.927734" xlink:href="#DejaVuSans-32"/>
      <use x="257.714844" xlink:href="#DejaVuSans-91"/>
      <use x="296.728516" xlink:href="#DejaVuSans-115"/>
      <use x="348.828125" xlink:href="#DejaVuSans-93"/>
     </g>
    </g>
   </g>
   <g id="matplotlib.axis_3">
    <g id="ytick_4">
     <g id="line2d_13">
      <g>
       <use style="stroke:#000000;stroke-width:0.8;" x="78.775" xlink:href="#mcc61eb076b" y="268.822909"/>
      </g>
     </g>
     <g id="text_13">
      <!-- 0 -->
      <g transform="translate(59.05 276.421347)scale(0.2 -0.2)">
       <use xlink:href="#DejaVuSans-48"/>
      </g>
     </g>
    </g>
    <g id="ytick_5">
     <g id="line2d_14">
      <g>
       <use style="stroke:#000000;stroke-width:0.8;" x="78.775" xlink:href="#mcc61eb076b" y="216.933818"/>
      </g>
     </g>
     <g id="text_14">
      <!-- 200 -->
      <g transform="translate(33.6 224.532256)scale(0.2 -0.2)">
       <use xlink:href="#DejaVuSans-50"/>
       <use x="63.623047" xlink:href="#DejaVuSans-48"/>
       <use x="127.246094" xlink:href="#DejaVuSans-48"/>
      </g>
     </g>
    </g>
    <g id="ytick_6">
     <g id="line2d_15">
      <g>
       <use style="stroke:#000000;stroke-width:0.8;" x="78.775" xlink:href="#mcc61eb076b" y="165.044727"/>
      </g>
     </g>
     <g id="text_15">
      <!-- 400 -->
      <g transform="translate(33.6 172.643165)scale(0.2 -0.2)">
       <use xlink:href="#DejaVuSans-52"/>
       <use x="63.623047" xlink:href="#DejaVuSans-48"/>
       <use x="127.246094" xlink:href="#DejaVuSans-48"/>
      </g>
     </g>
    </g>
   </g>
   <g id="line2d_16">
    <path clip-path="url(#p7bab55e8ad)" d="M 78.775 268.822909 
L 79.426 268.331208 
L 80.077 267.680253 
L 80.728 266.117868 
L 81.379 262.66027 
L 82.03 258.598287 
L 82.681 255.875937 
L 83.332 254.503428 
L 83.983 254.006598 
L 84.634 253.988096 
L 85.936 254.498472 
L 88.54 255.675642 
L 90.493 256.306054 
L 93.097 256.878356 
L 95.701 257.207498 
L 98.305 257.315993 
L 100.909 257.219391 
L 104.164 256.847215 
L 108.07 256.13014 
L 115.882 254.563827 
L 118.486 254.255388 
L 121.09 254.149196 
L 123.694 254.265632 
L 126.298 254.589481 
L 130.204 255.350567 
L 137.365 256.833331 
L 140.62 257.242191 
L 143.875 257.387908 
L 147.13 257.261136 
L 150.385 256.889639 
L 154.291 256.20827 
L 162.103 254.751239 
L 165.358 254.420518 
L 167.962 254.368075 
L 170.566 254.517056 
L 173.821 254.950605 
L 179.029 255.956344 
L 183.586 256.773864 
L 186.841 257.147017 
L 190.096 257.280092 
L 193.351 257.162813 
L 196.606 256.820408 
L 201.163 256.076092 
L 208.324 254.862493 
L 211.579 254.561909 
L 214.183 254.51427 
L 217.438 254.709756 
L 220.693 255.143932 
L 232.411 256.996857 
L 235.666 257.166805 
L 238.921 257.105427 
L 242.176 256.829379 
L 246.733 256.177235 
L 254.545 254.960066 
L 257.8 254.686405 
L 261.055 254.658186 
L 264.31 254.88383 
L 268.216 255.413818 
L 277.33 256.789966 
L 280.585 257.030265 
L 283.84 257.060595 
L 287.095 256.883237 
L 291.001 256.444173 
L 302.719 254.873907 
L 305.974 254.754226 
L 309.229 254.868981 
L 313.135 255.276914 
L 325.504 256.874987 
L 328.759 256.983576 
L 332.014 256.896403 
L 335.92 256.562113 
L 341.779 255.780085 
L 346.987 255.128628 
L 350.893 254.877779 
L 354.148 254.89581 
L 357.403 255.119422 
L 361.96 255.675506 
L 369.121 256.593498 
L 373.027 256.860737 
L 376.933 256.874357 
L 380.839 256.639937 
L 386.047 256.052904 
L 393.859 255.146448 
L 397.765 254.958629 
L 401.02 255.012984 
L 404.926 255.313899 
L 412.087 256.190788 
L 416.644 256.64469 
L 420.55 256.817908 
L 424.456 256.753317 
L 428.362 256.473155 
L 434.872 255.737897 
L 440.08 255.217261 
L 443.986 255.044347 
L 447.892 255.123174 
L 451.798 255.429195 
L 464.818 256.693372 
L 468.724 256.746208 
L 472.63 256.58388 
L 477.838 256.11472 
L 486.952 255.240399 
L 490.858 255.117604 
L 494.764 255.226055 
L 499.321 255.595976 
L 509.737 256.570515 
L 513.643 256.688531 
L 517.549 256.604808 
L 522.106 256.288452 
L 535.126 255.219661 
L 539.032 255.211114 
L 543.589 255.455682 
L 559.213 256.623293 
L 563.77 256.553778 
L 568.978 256.210174 
L 580.696 255.302957 
L 584.602 255.261059 
L 589.159 255.450549 
L 595.669 255.994749 
L 602.179 256.470457 
L 606.736 256.574626 
L 611.293 256.448518 
L 617.152 256.032495 
L 625.615 255.408406 
L 630.172 255.310759 
L 634.729 255.450979 
L 641.239 255.93259 
L 648.4 256.426969 
L 652.957 256.526724 
L 657.514 256.414688 
L 663.373 256.036256 
L 672.487 255.439539 
L 677.044 255.378619 
L 681.601 255.530696 
L 689.413 256.071472 
L 695.272 256.393109 
L 699.829 256.448757 
L 705.037 256.279082 
L 714.151 255.669905 
L 720.01 255.416887 
L 724.567 255.443989 
L 729.775 255.715657 
L 742.795 256.571608 
L 747.352 256.59831 
L 752.56 256.389614 
L 759.721 255.83552 
L 768.184 255.224054 
L 774.043 255.05094 
L 780.553 255.108809 
L 791.62 255.481763 
L 798.781 255.901334 
L 803.338 256.383349 
L 807.895 257.106306 
L 815.056 258.556855 
L 819.613 259.349257 
L 822.868 259.67904 
L 825.472 259.743085 
L 828.076 259.597262 
L 830.68 259.213945 
L 833.284 258.562085 
L 835.237 257.874095 
L 837.19 256.993534 
L 839.143 255.896651 
L 841.096 254.555379 
L 843.049 252.936349 
L 845.002 250.999261 
L 846.955 248.694784 
L 848.908 245.963166 
L 850.861 242.736428 
L 852.814 238.949027 
L 854.767 234.56327 
L 856.72 229.615657 
L 859.975 220.717784 
L 859.975 220.717784 
" style="fill:none;stroke:#1f77b4;stroke-linecap:square;stroke-width:1.5;"/>
   </g>
   <g id="line2d_17">
    <path clip-path="url(#p7bab55e8ad)" d="M 78.775 268.822909 
L 79.426 268.331208 
L 80.077 267.680253 
L 80.728 266.117868 
L 81.379 262.66027 
L 82.03 258.598287 
L 82.681 255.875937 
L 83.332 254.503428 
L 83.983 254.006598 
L 84.634 253.988096 
L 85.936 254.498472 
L 88.54 255.675642 
L 90.493 256.306054 
L 93.097 256.878356 
L 95.701 257.207498 
L 98.305 257.315993 
L 100.909 257.219391 
L 104.164 256.847215 
L 108.07 256.13014 
L 115.882 254.563827 
L 118.486 254.255388 
L 121.09 254.149196 
L 123.694 254.265632 
L 126.298 254.589481 
L 130.204 255.350567 
L 137.365 256.833331 
L 140.62 257.242191 
L 143.875 257.387908 
L 147.13 257.261136 
L 150.385 256.889639 
L 154.291 256.20827 
L 162.103 254.751239 
L 165.358 254.420518 
L 167.962 254.368075 
L 170.566 254.517056 
L 173.821 254.950605 
L 179.029 255.956344 
L 183.586 256.773864 
L 186.841 257.147017 
L 190.096 257.280092 
L 193.351 257.162813 
L 196.606 256.820408 
L 201.163 256.076092 
L 208.324 254.862493 
L 211.579 254.561909 
L 214.183 254.51427 
L 217.438 254.709756 
L 220.693 255.143932 
L 232.411 256.996857 
L 235.666 257.166805 
L 238.921 257.105427 
L 242.176 256.829379 
L 246.733 256.177235 
L 254.545 254.960066 
L 257.8 254.686405 
L 261.055 254.658186 
L 264.31 254.88383 
L 268.216 255.413818 
L 277.33 256.789966 
L 280.585 257.030265 
L 283.84 257.060595 
L 287.095 256.883237 
L 291.001 256.444173 
L 302.719 254.873907 
L 305.974 254.754226 
L 309.229 254.868981 
L 313.135 255.276914 
L 325.504 256.874987 
L 328.759 256.983576 
L 332.014 256.896403 
L 335.92 256.562113 
L 341.779 255.780085 
L 346.987 255.128628 
L 350.893 254.877779 
L 354.148 254.89581 
L 357.403 255.119422 
L 361.96 255.675506 
L 369.121 256.593498 
L 373.027 256.860737 
L 376.933 256.874357 
L 380.839 256.639937 
L 386.047 256.052904 
L 393.859 255.146448 
L 397.765 254.958629 
L 401.02 255.012984 
L 404.926 255.313899 
L 412.087 256.190788 
L 416.644 256.64469 
L 420.55 256.817907 
L 424.456 256.753317 
L 428.362 256.473154 
L 434.872 255.737896 
L 440.08 255.21726 
L 443.986 255.044346 
L 447.892 255.123173 
L 451.798 255.429195 
L 464.818 256.693375 
L 468.724 256.746212 
L 472.63 256.583884 
L 477.838 256.114725 
L 486.952 255.240401 
L 490.858 255.117604 
L 494.764 255.22605 
L 499.321 255.595966 
L 509.737 256.570495 
L 513.643 256.688509 
L 517.549 256.604786 
L 522.106 256.288435 
L 535.126 255.219694 
L 539.032 255.211173 
L 543.589 255.455772 
L 559.213 256.623392 
L 563.77 256.553829 
L 568.978 256.210134 
L 580.696 255.302549 
L 584.602 255.260512 
L 589.159 255.449883 
L 595.669 255.994093 
L 602.179 256.470104 
L 606.736 256.574671 
L 611.293 256.449114 
L 617.152 256.034012 
L 625.615 255.411427 
L 630.172 255.314328 
L 634.729 255.454552 
L 641.239 255.93475 
L 648.4 256.425531 
L 652.957 256.522104 
L 657.514 256.406429 
L 663.373 256.023154 
L 672.487 255.422053 
L 677.044 255.363133 
L 681.601 255.521743 
L 689.413 256.084549 
L 695.923 256.450788 
L 700.48 256.495652 
L 705.688 256.314738 
L 723.265 255.423477 
L 728.473 255.557716 
L 745.399 256.255947 
L 751.258 256.105482 
L 764.278 255.60781 
L 768.835 255.724758 
L 774.043 256.118699 
L 785.761 257.165638 
L 789.667 257.235093 
L 793.573 257.060647 
L 797.479 256.622194 
L 801.385 255.922037 
L 805.291 254.981381 
L 809.848 253.63607 
L 822.217 249.783145 
L 824.821 249.318064 
L 826.774 249.175049 
L 828.727 249.266494 
L 830.68 249.646616 
L 831.982 250.084986 
L 833.284 250.684498 
L 835.237 251.896274 
L 837.19 253.46642 
L 839.794 255.986718 
L 843.7 259.935682 
L 845.653 261.581764 
L 847.606 262.843863 
L 849.559 263.715522 
L 851.512 264.255487 
L 853.465 264.536946 
L 855.418 264.616828 
L 858.022 264.461891 
L 859.975 264.155411 
L 859.975 264.155411 
" style="fill:none;stroke:#ff7f0e;stroke-linecap:square;stroke-width:1.5;"/>
   </g>
   <g id="patch_8">
    <path d="M 78.775 268.822909 
L 78.775 165.044727 
" style="fill:none;stroke:#000000;stroke-linecap:square;stroke-linejoin:miter;stroke-width:0.8;"/>
   </g>
   <g id="patch_9">
    <path d="M 859.975 268.822909 
L 859.975 165.044727 
" style="fill:none;stroke:#000000;stroke-linecap:square;stroke-linejoin:miter;stroke-width:0.8;"/>
   </g>
   <g id="patch_10">
    <path d="M 78.775 268.822909 
L 859.975 268.822909 
" style="fill:none;stroke:#000000;stroke-linecap:square;stroke-linejoin:miter;stroke-width:0.8;"/>
   </g>
   <g id="patch_11">
    <path d="M 78.775 165.044727 
L 859.975 165.044727 
" style="fill:none;stroke:#000000;stroke-linecap:square;stroke-linejoin:miter;stroke-width:0.8;"/>
   </g>
  </g>
 </g>
 <defs>
  <clipPath id="pd75cea78a8">
   <rect height="103.778182" width="781.2" x="78.775" y="40.510909"/>
  </clipPath>
  <clipPath id="p7bab55e8ad">
   <rect height="103.778182" width="781.2" x="78.775" y="165.044727"/>
  </clipPath>
 </defs>
</svg>
