<?xml version="1.0" encoding="utf-8" standalone="no"?>
<!DOCTYPE svg PUBLIC "-//W3C//DTD SVG 1.1//EN"
  "http://www.w3.org/Graphics/SVG/1.1/DTD/svg11.dtd">
<!-- Created with matplotlib (https://matplotlib.org/) -->
<svg height="162.41225pt" version="1.1" viewBox="0 0 460.671875 162.41225" width="460.671875pt" xmlns="http://www.w3.org/2000/svg" xmlns:xlink="http://www.w3.org/1999/xlink">
 <defs>
  <style type="text/css">
*{stroke-linecap:butt;stroke-linejoin:round;}
  </style>
 </defs>
 <g id="figure_1">
  <g id="patch_1">
   <path d="M 0 162.41225 
L 460.671875 162.41225 
L 460.671875 0 
L 0 0 
z
" style="fill:#ffffff;"/>
  </g>
  <g id="axes_1">
   <g id="patch_2">
    <path d="M 53.328125 124.856 
L 443.928125 124.856 
L 443.928125 10.7 
L 53.328125 10.7 
z
" style="fill:#ffffff;"/>
   </g>
   <g id="matplotlib.axis_1">
    <g id="xtick_1">
     <g id="line2d_1">
      <defs>
       <path d="M 0 0 
L 0 3.5 
" id="med873d8197" style="stroke:#000000;stroke-width:0.8;"/>
      </defs>
      <g>
       <use style="stroke:#000000;stroke-width:0.8;" x="53.328125" xlink:href="#med873d8197" y="124.856"/>
      </g>
     </g>
     <g id="text_1">
      <!-- 0 -->
      <defs>
       <path d="M 31.78125 66.40625 
Q 24.171875 66.40625 20.328125 58.90625 
Q 16.5 51.421875 16.5 36.375 
Q 16.5 21.390625 20.328125 13.890625 
Q 24.171875 6.390625 31.78125 6.390625 
Q 39.453125 6.390625 43.28125 13.890625 
Q 47.125 21.390625 47.125 36.375 
Q 47.125 51.421875 43.28125 58.90625 
Q 39.453125 66.40625 31.78125 66.40625 
z
M 31.78125 74.21875 
Q 44.046875 74.21875 50.515625 64.515625 
Q 56.984375 54.828125 56.984375 36.375 
Q 56.984375 17.96875 50.515625 8.265625 
Q 44.046875 -1.421875 31.78125 -1.421875 
Q 19.53125 -1.421875 13.0625 8.265625 
Q 6.59375 17.96875 6.59375 36.375 
Q 6.59375 54.828125 13.0625 64.515625 
Q 19.53125 74.21875 31.78125 74.21875 
z
" id="DejaVuSans-48"/>
      </defs>
      <g transform="translate(50.146875 139.454437)scale(0.1 -0.1)">
       <use xlink:href="#DejaVuSans-48"/>
      </g>
     </g>
    </g>
    <g id="xtick_2">
     <g id="line2d_2">
      <g>
       <use style="stroke:#000000;stroke-width:0.8;" x="102.153125" xlink:href="#med873d8197" y="124.856"/>
      </g>
     </g>
     <g id="text_2">
      <!-- 25 -->
      <defs>
       <path d="M 19.1875 8.296875 
L 53.609375 8.296875 
L 53.609375 0 
L 7.328125 0 
L 7.328125 8.296875 
Q 12.9375 14.109375 22.625 23.890625 
Q 32.328125 33.6875 34.8125 36.53125 
Q 39.546875 41.84375 41.421875 45.53125 
Q 43.3125 49.21875 43.3125 52.78125 
Q 43.3125 58.59375 39.234375 62.25 
Q 35.15625 65.921875 28.609375 65.921875 
Q 23.96875 65.921875 18.8125 64.3125 
Q 13.671875 62.703125 7.8125 59.421875 
L 7.8125 69.390625 
Q 13.765625 71.78125 18.9375 73 
Q 24.125 74.21875 28.421875 74.21875 
Q 39.75 74.21875 46.484375 68.546875 
Q 53.21875 62.890625 53.21875 53.421875 
Q 53.21875 48.921875 51.53125 44.890625 
Q 49.859375 40.875 45.40625 35.40625 
Q 44.1875 33.984375 37.640625 27.21875 
Q 31.109375 20.453125 19.1875 8.296875 
z
" id="DejaVuSans-50"/>
       <path d="M 10.796875 72.90625 
L 49.515625 72.90625 
L 49.515625 64.59375 
L 19.828125 64.59375 
L 19.828125 46.734375 
Q 21.96875 47.46875 24.109375 47.828125 
Q 26.265625 48.1875 28.421875 48.1875 
Q 40.625 48.1875 47.75 41.5 
Q 54.890625 34.8125 54.890625 23.390625 
Q 54.890625 11.625 47.5625 5.09375 
Q 40.234375 -1.421875 26.90625 -1.421875 
Q 22.3125 -1.421875 17.546875 -0.640625 
Q 12.796875 0.140625 7.71875 1.703125 
L 7.71875 11.625 
Q 12.109375 9.234375 16.796875 8.0625 
Q 21.484375 6.890625 26.703125 6.890625 
Q 35.15625 6.890625 40.078125 11.328125 
Q 45.015625 15.765625 45.015625 23.390625 
Q 45.015625 31 40.078125 35.4375 
Q 35.15625 39.890625 26.703125 39.890625 
Q 22.75 39.890625 18.8125 39.015625 
Q 14.890625 38.140625 10.796875 36.28125 
z
" id="DejaVuSans-53"/>
      </defs>
      <g transform="translate(95.790625 139.454437)scale(0.1 -0.1)">
       <use xlink:href="#DejaVuSans-50"/>
       <use x="63.623047" xlink:href="#DejaVuSans-53"/>
      </g>
     </g>
    </g>
    <g id="xtick_3">
     <g id="line2d_3">
      <g>
       <use style="stroke:#000000;stroke-width:0.8;" x="150.978125" xlink:href="#med873d8197" y="124.856"/>
      </g>
     </g>
     <g id="text_3">
      <!-- 50 -->
      <g transform="translate(144.615625 139.454437)scale(0.1 -0.1)">
       <use xlink:href="#DejaVuSans-53"/>
       <use x="63.623047" xlink:href="#DejaVuSans-48"/>
      </g>
     </g>
    </g>
    <g id="xtick_4">
     <g id="line2d_4">
      <g>
       <use style="stroke:#000000;stroke-width:0.8;" x="199.803125" xlink:href="#med873d8197" y="124.856"/>
      </g>
     </g>
     <g id="text_4">
      <!-- 75 -->
      <defs>
       <path d="M 8.203125 72.90625 
L 55.078125 72.90625 
L 55.078125 68.703125 
L 28.609375 0 
L 18.3125 0 
L 43.21875 64.59375 
L 8.203125 64.59375 
z
" id="DejaVuSans-55"/>
      </defs>
      <g transform="translate(193.440625 139.454437)scale(0.1 -0.1)">
       <use xlink:href="#DejaVuSans-55"/>
       <use x="63.623047" xlink:href="#DejaVuSans-53"/>
      </g>
     </g>
    </g>
    <g id="xtick_5">
     <g id="line2d_5">
      <g>
       <use style="stroke:#000000;stroke-width:0.8;" x="248.628125" xlink:href="#med873d8197" y="124.856"/>
      </g>
     </g>
     <g id="text_5">
      <!-- 100 -->
      <defs>
       <path d="M 12.40625 8.296875 
L 28.515625 8.296875 
L 28.515625 63.921875 
L 10.984375 60.40625 
L 10.984375 69.390625 
L 28.421875 72.90625 
L 38.28125 72.90625 
L 38.28125 8.296875 
L 54.390625 8.296875 
L 54.390625 0 
L 12.40625 0 
z
" id="DejaVuSans-49"/>
      </defs>
      <g transform="translate(239.084375 139.454437)scale(0.1 -0.1)">
       <use xlink:href="#DejaVuSans-49"/>
       <use x="63.623047" xlink:href="#DejaVuSans-48"/>
       <use x="127.246094" xlink:href="#DejaVuSans-48"/>
      </g>
     </g>
    </g>
    <g id="xtick_6">
     <g id="line2d_6">
      <g>
       <use style="stroke:#000000;stroke-width:0.8;" x="297.453125" xlink:href="#med873d8197" y="124.856"/>
      </g>
     </g>
     <g id="text_6">
      <!-- 125 -->
      <g transform="translate(287.909375 139.454437)scale(0.1 -0.1)">
       <use xlink:href="#DejaVuSans-49"/>
       <use x="63.623047" xlink:href="#DejaVuSans-50"/>
       <use x="127.246094" xlink:href="#DejaVuSans-53"/>
      </g>
     </g>
    </g>
    <g id="xtick_7">
     <g id="line2d_7">
      <g>
       <use style="stroke:#000000;stroke-width:0.8;" x="346.278125" xlink:href="#med873d8197" y="124.856"/>
      </g>
     </g>
     <g id="text_7">
      <!-- 150 -->
      <g transform="translate(336.734375 139.454437)scale(0.1 -0.1)">
       <use xlink:href="#DejaVuSans-49"/>
       <use x="63.623047" xlink:href="#DejaVuSans-53"/>
       <use x="127.246094" xlink:href="#DejaVuSans-48"/>
      </g>
     </g>
    </g>
    <g id="xtick_8">
     <g id="line2d_8">
      <g>
       <use style="stroke:#000000;stroke-width:0.8;" x="395.103125" xlink:href="#med873d8197" y="124.856"/>
      </g>
     </g>
     <g id="text_8">
      <!-- 175 -->
      <g transform="translate(385.559375 139.454437)scale(0.1 -0.1)">
       <use xlink:href="#DejaVuSans-49"/>
       <use x="63.623047" xlink:href="#DejaVuSans-55"/>
       <use x="127.246094" xlink:href="#DejaVuSans-53"/>
      </g>
     </g>
    </g>
    <g id="xtick_9">
     <g id="line2d_9">
      <g>
       <use style="stroke:#000000;stroke-width:0.8;" x="443.928125" xlink:href="#med873d8197" y="124.856"/>
      </g>
     </g>
     <g id="text_9">
      <!-- 200 -->
      <g transform="translate(434.384375 139.454437)scale(0.1 -0.1)">
       <use xlink:href="#DejaVuSans-50"/>
       <use x="63.623047" xlink:href="#DejaVuSans-48"/>
       <use x="127.246094" xlink:href="#DejaVuSans-48"/>
      </g>
     </g>
    </g>
    <g id="text_10">
     <!-- time [s] -->
     <defs>
      <path d="M 18.3125 70.21875 
L 18.3125 54.6875 
L 36.8125 54.6875 
L 36.8125 47.703125 
L 18.3125 47.703125 
L 18.3125 18.015625 
Q 18.3125 11.328125 20.140625 9.421875 
Q 21.96875 7.515625 27.59375 7.515625 
L 36.8125 7.515625 
L 36.8125 0 
L 27.59375 0 
Q 17.1875 0 13.234375 3.875 
Q 9.28125 7.765625 9.28125 18.015625 
L 9.28125 47.703125 
L 2.6875 47.703125 
L 2.6875 54.6875 
L 9.28125 54.6875 
L 9.28125 70.21875 
z
" id="DejaVuSans-116"/>
      <path d="M 9.421875 54.6875 
L 18.40625 54.6875 
L 18.40625 0 
L 9.421875 0 
z
M 9.421875 75.984375 
L 18.40625 75.984375 
L 18.40625 64.59375 
L 9.421875 64.59375 
z
" id="DejaVuSans-105"/>
      <path d="M 52 44.1875 
Q 55.375 50.25 60.0625 53.125 
Q 64.75 56 71.09375 56 
Q 79.640625 56 84.28125 50.015625 
Q 88.921875 44.046875 88.921875 33.015625 
L 88.921875 0 
L 79.890625 0 
L 79.890625 32.71875 
Q 79.890625 40.578125 77.09375 44.375 
Q 74.3125 48.1875 68.609375 48.1875 
Q 61.625 48.1875 57.5625 43.546875 
Q 53.515625 38.921875 53.515625 30.90625 
L 53.515625 0 
L 44.484375 0 
L 44.484375 32.71875 
Q 44.484375 40.625 41.703125 44.40625 
Q 38.921875 48.1875 33.109375 48.1875 
Q 26.21875 48.1875 22.15625 43.53125 
Q 18.109375 38.875 18.109375 30.90625 
L 18.109375 0 
L 9.078125 0 
L 9.078125 54.6875 
L 18.109375 54.6875 
L 18.109375 46.1875 
Q 21.1875 51.21875 25.484375 53.609375 
Q 29.78125 56 35.6875 56 
Q 41.65625 56 45.828125 52.96875 
Q 50 49.953125 52 44.1875 
z
" id="DejaVuSans-109"/>
      <path d="M 56.203125 29.59375 
L 56.203125 25.203125 
L 14.890625 25.203125 
Q 15.484375 15.921875 20.484375 11.0625 
Q 25.484375 6.203125 34.421875 6.203125 
Q 39.59375 6.203125 44.453125 7.46875 
Q 49.3125 8.734375 54.109375 11.28125 
L 54.109375 2.78125 
Q 49.265625 0.734375 44.1875 -0.34375 
Q 39.109375 -1.421875 33.890625 -1.421875 
Q 20.796875 -1.421875 13.15625 6.1875 
Q 5.515625 13.8125 5.515625 26.8125 
Q 5.515625 40.234375 12.765625 48.109375 
Q 20.015625 56 32.328125 56 
Q 43.359375 56 49.78125 48.890625 
Q 56.203125 41.796875 56.203125 29.59375 
z
M 47.21875 32.234375 
Q 47.125 39.59375 43.09375 43.984375 
Q 39.0625 48.390625 32.421875 48.390625 
Q 24.90625 48.390625 20.390625 44.140625 
Q 15.875 39.890625 15.1875 32.171875 
z
" id="DejaVuSans-101"/>
      <path id="DejaVuSans-32"/>
      <path d="M 8.59375 75.984375 
L 29.296875 75.984375 
L 29.296875 69 
L 17.578125 69 
L 17.578125 -6.203125 
L 29.296875 -6.203125 
L 29.296875 -13.1875 
L 8.59375 -13.1875 
z
" id="DejaVuSans-91"/>
      <path d="M 44.28125 53.078125 
L 44.28125 44.578125 
Q 40.484375 46.53125 36.375 47.5 
Q 32.28125 48.484375 27.875 48.484375 
Q 21.1875 48.484375 17.84375 46.4375 
Q 14.5 44.390625 14.5 40.28125 
Q 14.5 37.15625 16.890625 35.375 
Q 19.28125 33.59375 26.515625 31.984375 
L 29.59375 31.296875 
Q 39.15625 29.25 43.1875 25.515625 
Q 47.21875 21.78125 47.21875 15.09375 
Q 47.21875 7.46875 41.1875 3.015625 
Q 35.15625 -1.421875 24.609375 -1.421875 
Q 20.21875 -1.421875 15.453125 -0.5625 
Q 10.6875 0.296875 5.421875 2 
L 5.421875 11.28125 
Q 10.40625 8.6875 15.234375 7.390625 
Q 20.0625 6.109375 24.8125 6.109375 
Q 31.15625 6.109375 34.5625 8.28125 
Q 37.984375 10.453125 37.984375 14.40625 
Q 37.984375 18.0625 35.515625 20.015625 
Q 33.0625 21.96875 24.703125 23.78125 
L 21.578125 24.515625 
Q 13.234375 26.265625 9.515625 29.90625 
Q 5.8125 33.546875 5.8125 39.890625 
Q 5.8125 47.609375 11.28125 51.796875 
Q 16.75 56 26.8125 56 
Q 31.78125 56 36.171875 55.265625 
Q 40.578125 54.546875 44.28125 53.078125 
z
" id="DejaVuSans-115"/>
      <path d="M 30.421875 75.984375 
L 30.421875 -13.1875 
L 9.71875 -13.1875 
L 9.71875 -6.203125 
L 21.390625 -6.203125 
L 21.390625 69 
L 9.71875 69 
L 9.71875 75.984375 
z
" id="DejaVuSans-93"/>
     </defs>
     <g transform="translate(229.236719 153.132562)scale(0.1 -0.1)">
      <use xlink:href="#DejaVuSans-116"/>
      <use x="39.208984" xlink:href="#DejaVuSans-105"/>
      <use x="66.992188" xlink:href="#DejaVuSans-109"/>
      <use x="164.404297" xlink:href="#DejaVuSans-101"/>
      <use x="225.927734" xlink:href="#DejaVuSans-32"/>
      <use x="257.714844" xlink:href="#DejaVuSans-91"/>
      <use x="296.728516" xlink:href="#DejaVuSans-115"/>
      <use x="348.828125" xlink:href="#DejaVuSans-93"/>
     </g>
    </g>
   </g>
   <g id="matplotlib.axis_2">
    <g id="ytick_1">
     <g id="line2d_10">
      <defs>
       <path d="M 0 0 
L -3.5 0 
" id="ma41b59ae4a" style="stroke:#000000;stroke-width:0.8;"/>
      </defs>
      <g>
       <use style="stroke:#000000;stroke-width:0.8;" x="53.328125" xlink:href="#ma41b59ae4a" y="124.856"/>
      </g>
     </g>
     <g id="text_11">
      <!-- 0 -->
      <g transform="translate(39.965625 128.655219)scale(0.1 -0.1)">
       <use xlink:href="#DejaVuSans-48"/>
      </g>
     </g>
    </g>
    <g id="ytick_2">
     <g id="line2d_11">
      <g>
       <use style="stroke:#000000;stroke-width:0.8;" x="53.328125" xlink:href="#ma41b59ae4a" y="91.280706"/>
      </g>
     </g>
     <g id="text_12">
      <!-- 500 -->
      <g transform="translate(27.240625 95.079925)scale(0.1 -0.1)">
       <use xlink:href="#DejaVuSans-53"/>
       <use x="63.623047" xlink:href="#DejaVuSans-48"/>
       <use x="127.246094" xlink:href="#DejaVuSans-48"/>
      </g>
     </g>
    </g>
    <g id="ytick_3">
     <g id="line2d_12">
      <g>
       <use style="stroke:#000000;stroke-width:0.8;" x="53.328125" xlink:href="#ma41b59ae4a" y="57.705412"/>
      </g>
     </g>
     <g id="text_13">
      <!-- 1000 -->
      <g transform="translate(20.878125 61.504631)scale(0.1 -0.1)">
       <use xlink:href="#DejaVuSans-49"/>
       <use x="63.623047" xlink:href="#DejaVuSans-48"/>
       <use x="127.246094" xlink:href="#DejaVuSans-48"/>
       <use x="190.869141" xlink:href="#DejaVuSans-48"/>
      </g>
     </g>
    </g>
    <g id="ytick_4">
     <g id="line2d_13">
      <g>
       <use style="stroke:#000000;stroke-width:0.8;" x="53.328125" xlink:href="#ma41b59ae4a" y="24.130118"/>
      </g>
     </g>
     <g id="text_14">
      <!-- 1500 -->
      <g transform="translate(20.878125 27.929336)scale(0.1 -0.1)">
       <use xlink:href="#DejaVuSans-49"/>
       <use x="63.623047" xlink:href="#DejaVuSans-53"/>
       <use x="127.246094" xlink:href="#DejaVuSans-48"/>
       <use x="190.869141" xlink:href="#DejaVuSans-48"/>
      </g>
     </g>
    </g>
    <g id="text_15">
     <!-- A(t) -->
     <defs>
      <path d="M 34.1875 63.1875 
L 20.796875 26.90625 
L 47.609375 26.90625 
z
M 28.609375 72.90625 
L 39.796875 72.90625 
L 67.578125 0 
L 57.328125 0 
L 50.6875 18.703125 
L 17.828125 18.703125 
L 11.1875 0 
L 0.78125 0 
z
" id="DejaVuSans-65"/>
      <path d="M 31 75.875 
Q 24.46875 64.65625 21.28125 53.65625 
Q 18.109375 42.671875 18.109375 31.390625 
Q 18.109375 20.125 21.3125 9.0625 
Q 24.515625 -2 31 -13.1875 
L 23.1875 -13.1875 
Q 15.875 -1.703125 12.234375 9.375 
Q 8.59375 20.453125 8.59375 31.390625 
Q 8.59375 42.28125 12.203125 53.3125 
Q 15.828125 64.359375 23.1875 75.875 
z
" id="DejaVuSans-40"/>
      <path d="M 8.015625 75.875 
L 15.828125 75.875 
Q 23.140625 64.359375 26.78125 53.3125 
Q 30.421875 42.28125 30.421875 31.390625 
Q 30.421875 20.453125 26.78125 9.375 
Q 23.140625 -1.703125 15.828125 -13.1875 
L 8.015625 -13.1875 
Q 14.5 -2 17.703125 9.0625 
Q 20.90625 20.125 20.90625 31.390625 
Q 20.90625 42.671875 17.703125 53.65625 
Q 14.5 64.65625 8.015625 75.875 
z
" id="DejaVuSans-41"/>
     </defs>
     <g transform="translate(14.798438 77.060031)rotate(-90)scale(0.1 -0.1)">
      <use xlink:href="#DejaVuSans-65"/>
      <use x="68.408203" xlink:href="#DejaVuSans-40"/>
      <use x="107.421875" xlink:href="#DejaVuSans-116"/>
      <use x="146.630859" xlink:href="#DejaVuSans-41"/>
     </g>
    </g>
   </g>
   <g id="line2d_14">
    <path clip-path="url(#pcf28d8fa5e)" d="M 53.328125 124.856 
L 54.304625 111.396873 
L 55.281125 75.658099 
L 56.257625 44.408711 
L 57.234125 25.443541 
L 58.210625 16.603497 
L 59.187125 15.014774 
L 60.163625 18.454093 
L 61.140125 25.368682 
L 62.116625 34.717025 
L 63.093125 45.82703 
L 65.046125 72.015113 
L 66.022625 87.171014 
L 67.975625 124.106161 
L 68.952125 124.805903 
L 75.787625 124.82427 
L 93.364625 124.668898 
L 99.223625 124.451864 
L 102.153125 124.130902 
L 103.129625 123.844676 
L 104.106125 123.026075 
L 105.082625 118.618053 
L 106.059125 101.110303 
L 107.035625 76.44425 
L 108.012125 57.585735 
L 108.988625 47.082878 
L 109.965125 43.573809 
L 110.941625 45.290273 
L 111.918125 50.805554 
L 112.894625 59.112987 
L 113.871125 69.584947 
L 114.847625 81.972684 
L 115.824125 96.605962 
L 116.800625 115.323836 
L 117.777125 124.750446 
L 119.730125 124.825155 
L 136.330625 124.760079 
L 146.095625 124.558307 
L 150.001625 124.302022 
L 151.954625 123.912315 
L 152.931125 123.259429 
L 153.907625 120.048271 
L 154.884125 105.152455 
L 155.860625 80.509311 
L 156.837125 60.243529 
L 157.813625 48.351469 
L 158.790125 43.761693 
L 159.766625 44.686493 
L 160.743125 49.626666 
L 161.719625 57.50514 
L 162.696125 67.63109 
L 163.672625 79.684732 
L 164.649125 93.86108 
L 165.625625 111.635678 
L 166.602125 124.682832 
L 167.578625 124.813105 
L 176.367125 124.816526 
L 191.991125 124.654227 
L 197.850125 124.407589 
L 199.803125 124.192336 
L 200.779625 123.970246 
L 201.756125 123.438466 
L 202.732625 121.098928 
L 203.709125 108.862776 
L 205.662125 63.161504 
L 206.638625 49.839556 
L 207.615125 44.113865 
L 208.591625 44.201995 
L 209.568125 48.534976 
L 210.544625 55.963908 
L 211.521125 65.734077 
L 212.497625 77.458165 
L 213.474125 91.215959 
L 215.427125 124.492953 
L 216.403625 124.808704 
L 224.215625 124.820221 
L 240.816125 124.658242 
L 246.675125 124.420109 
L 248.628125 124.218992 
L 249.604625 124.020496 
L 250.581125 123.579058 
L 251.557625 121.856642 
L 252.534125 112.14669 
L 254.487125 66.34058 
L 255.463625 51.557482 
L 256.440125 44.639931 
L 257.416625 43.843933 
L 258.393125 47.535308 
L 259.369625 54.492107 
L 260.346125 63.894685 
L 261.322625 75.29055 
L 262.299125 88.659037 
L 263.275625 104.863192 
L 264.252125 123.812302 
L 265.228625 124.802341 
L 271.087625 124.825449 
L 288.664625 124.683018 
L 295.500125 124.432036 
L 297.453125 124.243454 
L 298.429625 124.064585 
L 299.406125 123.691888 
L 300.382625 122.400826 
L 301.359125 114.937574 
L 303.312125 69.775921 
L 304.288625 53.514243 
L 305.265125 45.349285 
L 306.241625 43.619608 
L 307.218125 46.632761 
L 308.194625 53.092921 
L 309.171125 62.114221 
L 310.147625 73.180441 
L 311.124125 86.181635 
L 312.100625 101.754024 
L 313.077125 121.688688 
L 314.053625 124.792365 
L 318.936125 124.827309 
L 336.513125 124.704195 
L 343.348625 124.50034 
L 346.278125 124.266017 
L 347.254625 124.103658 
L 348.231125 123.784252 
L 349.207625 122.795073 
L 350.184125 117.210543 
L 351.160625 97.844728 
L 352.137125 73.456669 
L 353.113625 55.717959 
L 354.090125 46.251557 
L 355.066625 43.536704 
L 356.043125 45.832791 
L 357.019625 51.769854 
L 357.996125 60.394345 
L 358.972625 71.127032 
L 359.949125 83.777072 
L 360.925625 98.795058 
L 361.902125 118.229243 
L 362.878625 124.774903 
L 365.808125 124.827969 
L 383.385125 124.736002 
L 392.173625 124.508947 
L 395.103125 124.286927 
L 396.079625 124.138601 
L 397.056125 123.861241 
L 398.032625 123.085753 
L 399.009125 118.985809 
L 399.985625 102.066161 
L 400.962125 77.364696 
L 401.938625 58.175815 
L 402.915125 47.356689 
L 403.891625 43.60332 
L 404.868125 45.141136 
L 405.844625 50.526554 
L 406.821125 58.736812 
L 407.797625 69.129759 
L 408.774125 81.439893 
L 409.750625 95.963901 
L 410.727125 114.458946 
L 411.703625 124.739738 
L 413.656625 124.82497 
L 429.280625 124.769816 
L 440.022125 124.559857 
L 443.928125 124.306386 
L 443.928125 124.306386 
" style="fill:none;stroke:#1f77b4;stroke-linecap:square;stroke-width:1.5;"/>
   </g>
   <g id="line2d_15">
    <path clip-path="url(#pcf28d8fa5e)" d="M 53.328125 124.856 
L 55.281125 71.721191 
L 57.234125 30.169772 
L 59.187125 23.963826 
L 61.140125 35.233039 
L 63.093125 54.920094 
L 65.046125 79.372546 
L 66.999125 109.245956 
L 68.952125 124.807151 
L 78.717125 124.819282 
L 92.388125 124.66623 
L 96.294125 124.489129 
L 98.247125 124.251418 
L 100.200125 122.794615 
L 102.153125 96.350351 
L 104.106125 66.115009 
L 106.059125 61.015039 
L 108.012125 71.66607 
L 109.965125 91.492669 
L 111.918125 120.637386 
L 113.871125 124.820576 
L 127.542125 124.79324 
L 137.307125 124.632646 
L 141.213125 124.386971 
L 143.166125 123.884267 
L 145.119125 113.774467 
L 147.072125 76.31656 
L 149.025125 60.75955 
L 150.978125 65.500825 
L 152.931125 81.666636 
L 154.884125 106.063691 
L 156.837125 124.784344 
L 162.696125 124.828987 
L 178.320125 124.707673 
L 184.179125 124.473081 
L 186.132125 124.206776 
L 188.085125 122.153712 
L 190.038125 92.097056 
L 191.991125 64.545427 
L 193.944125 61.550326 
L 195.897125 73.365633 
L 197.850125 94.006756 
L 199.803125 123.221735 
L 201.756125 124.823164 
L 217.380125 124.775286 
L 225.192125 124.625425 
L 229.098125 124.361311 
L 231.051125 123.749166 
L 233.004125 110.209264 
L 234.957125 73.428767 
L 236.910125 60.496869 
L 238.863125 66.757643 
L 240.816125 83.816522 
L 242.769125 109.238235 
L 244.722125 124.800842 
L 252.534125 124.823973 
L 266.205125 124.703468 
L 272.064125 124.455804 
L 274.017125 124.15422 
L 275.970125 121.160501 
L 277.923125 87.993595 
L 279.876125 63.245691 
L 281.829125 62.24031 
L 283.782125 75.158324 
L 285.735125 96.622889 
L 287.688125 124.305014 
L 289.641125 124.825105 
L 305.265125 124.773183 
L 313.077125 124.617855 
L 316.983125 124.332573 
L 318.936125 123.566603 
L 320.889125 106.213535 
L 322.842125 70.853058 
L 324.795125 60.439436 
L 326.748125 68.129566 
L 328.701125 86.052115 
L 330.654125 112.596866 
L 332.607125 124.810062 
L 342.372125 124.816856 
L 356.043125 124.648072 
L 359.949125 124.437007 
L 361.902125 124.091125 
L 363.855125 119.65717 
L 365.808125 84.114918 
L 367.761125 62.2089 
L 369.714125 63.07823 
L 371.667125 77.041439 
L 373.620125 99.350009 
L 375.573125 124.626114 
L 377.526125 124.826561 
L 393.150125 124.77108 
L 400.962125 124.609909 
L 404.868125 124.30012 
L 406.821125 123.310344 
L 408.774125 101.962499 
L 410.727125 68.590201 
L 412.680125 60.575435 
L 414.633125 69.608904 
L 416.586125 88.371853 
L 418.539125 116.124501 
L 420.492125 124.815724 
L 432.210125 124.806989 
L 443.928125 124.641525 
L 443.928125 124.641525 
" style="fill:none;stroke:#2ca02c;stroke-linecap:square;stroke-width:1.5;"/>
   </g>
   <g id="line2d_16">
    <path clip-path="url(#pcf28d8fa5e)" d="M 53.328125 124.856 
L 55.281125 64.61027 
L 57.234125 22.489431 
L 59.187125 16.237987 
L 61.140125 27.60702 
L 63.093125 47.526293 
L 65.046125 72.467336 
L 66.999125 103.921275 
L 68.952125 124.545721 
L 72.858125 124.668289 
L 82.623125 124.510791 
L 90.435125 124.197898 
L 94.341125 123.891115 
L 96.294125 123.631092 
L 98.247125 123.134157 
L 100.200125 120.706784 
L 104.106125 58.898474 
L 106.059125 53.71185 
L 108.012125 64.569256 
L 109.965125 85.003192 
L 111.918125 117.325889 
L 113.871125 124.605589 
L 117.777125 124.658418 
L 127.542125 124.479982 
L 135.354125 124.129389 
L 139.260125 123.762507 
L 141.213125 123.409357 
L 143.166125 122.455385 
L 145.119125 109.195909 
L 147.072125 69.323209 
L 149.025125 53.450465 
L 150.978125 58.278189 
L 152.931125 74.826973 
L 154.884125 100.44708 
L 156.837125 124.460897 
L 158.790125 124.64913 
L 166.602125 124.593417 
L 176.367125 124.291066 
L 182.226125 123.868833 
L 184.179125 123.595224 
L 186.132125 123.047124 
L 188.085125 119.767504 
L 190.038125 85.641829 
L 191.991125 57.300131 
L 193.944125 54.256436 
L 195.897125 66.307338 
L 197.850125 87.629729 
L 199.803125 121.101266 
L 201.756125 124.618529 
L 207.615125 124.637603 
L 217.380125 124.409428 
L 223.239125 124.115407 
L 227.145125 123.734556 
L 229.098125 123.355816 
L 231.051125 122.221888 
L 233.004125 105.117851 
L 234.957125 66.365087 
L 236.910125 53.18387 
L 238.863125 59.559058 
L 240.816125 77.043479 
L 242.769125 103.918734 
L 244.722125 124.519707 
L 246.675125 124.652855 
L 254.487125 124.589603 
L 264.252125 124.281109 
L 270.111125 123.845834 
L 272.064125 123.557081 
L 274.017125 122.946556 
L 275.970125 118.380529 
L 277.923125 81.366249 
L 279.876125 55.977574 
L 281.829125 54.958469 
L 283.782125 68.142732 
L 285.735125 90.376095 
L 287.688125 123.210723 
L 289.641125 124.628605 
L 295.500125 124.634994 
L 305.265125 124.401977 
L 311.124125 124.101011 
L 315.030125 123.705054 
L 316.983125 123.296715 
L 318.936125 121.916116 
L 320.889125 100.686802 
L 322.842125 63.731728 
L 324.795125 53.125893 
L 326.748125 60.958113 
L 328.701125 79.353703 
L 330.654125 107.668307 
L 332.607125 124.556921 
L 336.513125 124.660846 
L 346.278125 124.49347 
L 354.090125 124.160095 
L 357.996125 123.821804 
L 359.949125 123.516094 
L 361.902125 122.828225 
L 363.855125 116.382857 
L 365.808125 77.348663 
L 367.761125 54.923217 
L 369.714125 55.81121 
L 371.667125 70.073189 
L 373.620125 93.256073 
L 375.573125 124.010303 
L 377.526125 124.636552 
L 383.385125 124.632284 
L 393.150125 124.394363 
L 399.009125 124.086176 
L 402.915125 123.673866 
L 404.868125 123.230983 
L 406.821125 121.501898 
L 408.774125 96.079684 
L 410.727125 61.421753 
L 412.680125 53.264508 
L 414.633125 62.467816 
L 416.586125 81.757387 
L 418.539125 111.735972 
L 420.492125 124.582515 
L 424.398125 124.659903 
L 434.163125 124.487653 
L 441.975125 124.146921 
L 443.928125 123.999959 
L 443.928125 123.999959 
" style="fill:none;stroke:#d62728;stroke-linecap:square;stroke-width:1.5;"/>
   </g>
   <g id="patch_3">
    <path d="M 53.328125 124.856 
L 53.328125 10.7 
" style="fill:none;stroke:#000000;stroke-linecap:square;stroke-linejoin:miter;stroke-width:0.8;"/>
   </g>
   <g id="patch_4">
    <path d="M 443.928125 124.856 
L 443.928125 10.7 
" style="fill:none;stroke:#000000;stroke-linecap:square;stroke-linejoin:miter;stroke-width:0.8;"/>
   </g>
   <g id="patch_5">
    <path d="M 53.328125 124.856 
L 443.928125 124.856 
" style="fill:none;stroke:#000000;stroke-linecap:square;stroke-linejoin:miter;stroke-width:0.8;"/>
   </g>
   <g id="patch_6">
    <path d="M 53.328125 10.7 
L 443.928125 10.7 
" style="fill:none;stroke:#000000;stroke-linecap:square;stroke-linejoin:miter;stroke-width:0.8;"/>
   </g>
   <g id="legend_1">
    <g id="patch_7">
     <path d="M 107.061719 33.378125 
L 390.194531 33.378125 
Q 392.194531 33.378125 392.194531 31.378125 
L 392.194531 17.7 
Q 392.194531 15.7 390.194531 15.7 
L 107.061719 15.7 
Q 105.061719 15.7 105.061719 17.7 
L 105.061719 31.378125 
Q 105.061719 33.378125 107.061719 33.378125 
z
" style="fill:#ffffff;opacity:0.8;stroke:#cccccc;stroke-linejoin:miter;"/>
    </g>
    <g id="line2d_17">
     <path d="M 109.061719 23.798437 
L 129.061719 23.798437 
" style="fill:none;stroke:#1f77b4;stroke-linecap:square;stroke-width:1.5;"/>
    </g>
    <g id="line2d_18"/>
    <g id="text_16">
     <!-- ODE -->
     <defs>
      <path d="M 39.40625 66.21875 
Q 28.65625 66.21875 22.328125 58.203125 
Q 16.015625 50.203125 16.015625 36.375 
Q 16.015625 22.609375 22.328125 14.59375 
Q 28.65625 6.59375 39.40625 6.59375 
Q 50.140625 6.59375 56.421875 14.59375 
Q 62.703125 22.609375 62.703125 36.375 
Q 62.703125 50.203125 56.421875 58.203125 
Q 50.140625 66.21875 39.40625 66.21875 
z
M 39.40625 74.21875 
Q 54.734375 74.21875 63.90625 63.9375 
Q 73.09375 53.65625 73.09375 36.375 
Q 73.09375 19.140625 63.90625 8.859375 
Q 54.734375 -1.421875 39.40625 -1.421875 
Q 24.03125 -1.421875 14.8125 8.828125 
Q 5.609375 19.09375 5.609375 36.375 
Q 5.609375 53.65625 14.8125 63.9375 
Q 24.03125 74.21875 39.40625 74.21875 
z
" id="DejaVuSans-79"/>
      <path d="M 19.671875 64.796875 
L 19.671875 8.109375 
L 31.59375 8.109375 
Q 46.6875 8.109375 53.6875 14.9375 
Q 60.6875 21.78125 60.6875 36.53125 
Q 60.6875 51.171875 53.6875 57.984375 
Q 46.6875 64.796875 31.59375 64.796875 
z
M 9.8125 72.90625 
L 30.078125 72.90625 
Q 51.265625 72.90625 61.171875 64.09375 
Q 71.09375 55.28125 71.09375 36.53125 
Q 71.09375 17.671875 61.125 8.828125 
Q 51.171875 0 30.078125 0 
L 9.8125 0 
z
" id="DejaVuSans-68"/>
      <path d="M 9.8125 72.90625 
L 55.90625 72.90625 
L 55.90625 64.59375 
L 19.671875 64.59375 
L 19.671875 43.015625 
L 54.390625 43.015625 
L 54.390625 34.71875 
L 19.671875 34.71875 
L 19.671875 8.296875 
L 56.78125 8.296875 
L 56.78125 0 
L 9.8125 0 
z
" id="DejaVuSans-69"/>
     </defs>
     <g transform="translate(137.061719 27.298437)scale(0.1 -0.1)">
      <use xlink:href="#DejaVuSans-79"/>
      <use x="78.710938" xlink:href="#DejaVuSans-68"/>
      <use x="155.712891" xlink:href="#DejaVuSans-69"/>
     </g>
    </g>
    <g id="line2d_19">
     <path d="M 178.952344 23.798437 
L 198.952344 23.798437 
" style="fill:none;stroke:#2ca02c;stroke-linecap:square;stroke-width:1.5;"/>
    </g>
    <g id="line2d_20"/>
    <g id="text_17">
     <!-- PDE, periphery -->
     <defs>
      <path d="M 19.671875 64.796875 
L 19.671875 37.40625 
L 32.078125 37.40625 
Q 38.96875 37.40625 42.71875 40.96875 
Q 46.484375 44.53125 46.484375 51.125 
Q 46.484375 57.671875 42.71875 61.234375 
Q 38.96875 64.796875 32.078125 64.796875 
z
M 9.8125 72.90625 
L 32.078125 72.90625 
Q 44.34375 72.90625 50.609375 67.359375 
Q 56.890625 61.8125 56.890625 51.125 
Q 56.890625 40.328125 50.609375 34.8125 
Q 44.34375 29.296875 32.078125 29.296875 
L 19.671875 29.296875 
L 19.671875 0 
L 9.8125 0 
z
" id="DejaVuSans-80"/>
      <path d="M 11.71875 12.40625 
L 22.015625 12.40625 
L 22.015625 4 
L 14.015625 -11.625 
L 7.71875 -11.625 
L 11.71875 4 
z
" id="DejaVuSans-44"/>
      <path d="M 18.109375 8.203125 
L 18.109375 -20.796875 
L 9.078125 -20.796875 
L 9.078125 54.6875 
L 18.109375 54.6875 
L 18.109375 46.390625 
Q 20.953125 51.265625 25.265625 53.625 
Q 29.59375 56 35.59375 56 
Q 45.5625 56 51.78125 48.09375 
Q 58.015625 40.1875 58.015625 27.296875 
Q 58.015625 14.40625 51.78125 6.484375 
Q 45.5625 -1.421875 35.59375 -1.421875 
Q 29.59375 -1.421875 25.265625 0.953125 
Q 20.953125 3.328125 18.109375 8.203125 
z
M 48.6875 27.296875 
Q 48.6875 37.203125 44.609375 42.84375 
Q 40.53125 48.484375 33.40625 48.484375 
Q 26.265625 48.484375 22.1875 42.84375 
Q 18.109375 37.203125 18.109375 27.296875 
Q 18.109375 17.390625 22.1875 11.75 
Q 26.265625 6.109375 33.40625 6.109375 
Q 40.53125 6.109375 44.609375 11.75 
Q 48.6875 17.390625 48.6875 27.296875 
z
" id="DejaVuSans-112"/>
      <path d="M 41.109375 46.296875 
Q 39.59375 47.171875 37.8125 47.578125 
Q 36.03125 48 33.890625 48 
Q 26.265625 48 22.1875 43.046875 
Q 18.109375 38.09375 18.109375 28.8125 
L 18.109375 0 
L 9.078125 0 
L 9.078125 54.6875 
L 18.109375 54.6875 
L 18.109375 46.1875 
Q 20.953125 51.171875 25.484375 53.578125 
Q 30.03125 56 36.53125 56 
Q 37.453125 56 38.578125 55.875 
Q 39.703125 55.765625 41.0625 55.515625 
z
" id="DejaVuSans-114"/>
      <path d="M 54.890625 33.015625 
L 54.890625 0 
L 45.90625 0 
L 45.90625 32.71875 
Q 45.90625 40.484375 42.875 44.328125 
Q 39.84375 48.1875 33.796875 48.1875 
Q 26.515625 48.1875 22.3125 43.546875 
Q 18.109375 38.921875 18.109375 30.90625 
L 18.109375 0 
L 9.078125 0 
L 9.078125 75.984375 
L 18.109375 75.984375 
L 18.109375 46.1875 
Q 21.34375 51.125 25.703125 53.5625 
Q 30.078125 56 35.796875 56 
Q 45.21875 56 50.046875 50.171875 
Q 54.890625 44.34375 54.890625 33.015625 
z
" id="DejaVuSans-104"/>
      <path d="M 32.171875 -5.078125 
Q 28.375 -14.84375 24.75 -17.8125 
Q 21.140625 -20.796875 15.09375 -20.796875 
L 7.90625 -20.796875 
L 7.90625 -13.28125 
L 13.1875 -13.28125 
Q 16.890625 -13.28125 18.9375 -11.515625 
Q 21 -9.765625 23.484375 -3.21875 
L 25.09375 0.875 
L 2.984375 54.6875 
L 12.5 54.6875 
L 29.59375 11.921875 
L 46.6875 54.6875 
L 56.203125 54.6875 
z
" id="DejaVuSans-121"/>
     </defs>
     <g transform="translate(206.952344 27.298437)scale(0.1 -0.1)">
      <use xlink:href="#DejaVuSans-80"/>
      <use x="60.302734" xlink:href="#DejaVuSans-68"/>
      <use x="137.304688" xlink:href="#DejaVuSans-69"/>
      <use x="200.488281" xlink:href="#DejaVuSans-44"/>
      <use x="232.275391" xlink:href="#DejaVuSans-32"/>
      <use x="264.0625" xlink:href="#DejaVuSans-112"/>
      <use x="327.539062" xlink:href="#DejaVuSans-101"/>
      <use x="389.0625" xlink:href="#DejaVuSans-114"/>
      <use x="430.175781" xlink:href="#DejaVuSans-105"/>
      <use x="457.958984" xlink:href="#DejaVuSans-112"/>
      <use x="521.435547" xlink:href="#DejaVuSans-104"/>
      <use x="584.814453" xlink:href="#DejaVuSans-101"/>
      <use x="646.337891" xlink:href="#DejaVuSans-114"/>
      <use x="687.451172" xlink:href="#DejaVuSans-121"/>
     </g>
    </g>
    <g id="line2d_21">
     <path d="M 301.616406 23.798437 
L 321.616406 23.798437 
" style="fill:none;stroke:#d62728;stroke-linecap:square;stroke-width:1.5;"/>
    </g>
    <g id="line2d_22"/>
    <g id="text_18">
     <!-- PDE, center -->
     <defs>
      <path d="M 48.78125 52.59375 
L 48.78125 44.1875 
Q 44.96875 46.296875 41.140625 47.34375 
Q 37.3125 48.390625 33.40625 48.390625 
Q 24.65625 48.390625 19.8125 42.84375 
Q 14.984375 37.3125 14.984375 27.296875 
Q 14.984375 17.28125 19.8125 11.734375 
Q 24.65625 6.203125 33.40625 6.203125 
Q 37.3125 6.203125 41.140625 7.25 
Q 44.96875 8.296875 48.78125 10.40625 
L 48.78125 2.09375 
Q 45.015625 0.34375 40.984375 -0.53125 
Q 36.96875 -1.421875 32.421875 -1.421875 
Q 20.0625 -1.421875 12.78125 6.34375 
Q 5.515625 14.109375 5.515625 27.296875 
Q 5.515625 40.671875 12.859375 48.328125 
Q 20.21875 56 33.015625 56 
Q 37.15625 56 41.109375 55.140625 
Q 45.0625 54.296875 48.78125 52.59375 
z
" id="DejaVuSans-99"/>
      <path d="M 54.890625 33.015625 
L 54.890625 0 
L 45.90625 0 
L 45.90625 32.71875 
Q 45.90625 40.484375 42.875 44.328125 
Q 39.84375 48.1875 33.796875 48.1875 
Q 26.515625 48.1875 22.3125 43.546875 
Q 18.109375 38.921875 18.109375 30.90625 
L 18.109375 0 
L 9.078125 0 
L 9.078125 54.6875 
L 18.109375 54.6875 
L 18.109375 46.1875 
Q 21.34375 51.125 25.703125 53.5625 
Q 30.078125 56 35.796875 56 
Q 45.21875 56 50.046875 50.171875 
Q 54.890625 44.34375 54.890625 33.015625 
z
" id="DejaVuSans-110"/>
     </defs>
     <g transform="translate(329.616406 27.298437)scale(0.1 -0.1)">
      <use xlink:href="#DejaVuSans-80"/>
      <use x="60.302734" xlink:href="#DejaVuSans-68"/>
      <use x="137.304688" xlink:href="#DejaVuSans-69"/>
      <use x="200.488281" xlink:href="#DejaVuSans-44"/>
      <use x="232.275391" xlink:href="#DejaVuSans-32"/>
      <use x="264.0625" xlink:href="#DejaVuSans-99"/>
      <use x="319.042969" xlink:href="#DejaVuSans-101"/>
      <use x="380.566406" xlink:href="#DejaVuSans-110"/>
      <use x="443.945312" xlink:href="#DejaVuSans-116"/>
      <use x="483.154297" xlink:href="#DejaVuSans-101"/>
      <use x="544.677734" xlink:href="#DejaVuSans-114"/>
     </g>
    </g>
   </g>
  </g>
 </g>
 <defs>
  <clipPath id="pcf28d8fa5e">
   <rect height="114.156" width="390.6" x="53.328125" y="10.7"/>
  </clipPath>
 </defs>
</svg>
