<?xml version="1.0" encoding="utf-8" standalone="no"?>
<!DOCTYPE svg PUBLIC "-//W3C//DTD SVG 1.1//EN"
  "http://www.w3.org/Graphics/SVG/1.1/DTD/svg11.dtd">
<!-- Created with matplotlib (https://matplotlib.org/) -->
<svg height="265.69625pt" version="1.1" viewBox="0 0 404.871875 265.69625" width="404.871875pt" xmlns="http://www.w3.org/2000/svg" xmlns:xlink="http://www.w3.org/1999/xlink">
 <defs>
  <style type="text/css">
*{stroke-linecap:butt;stroke-linejoin:round;}
  </style>
 </defs>
 <g id="figure_1">
  <g id="patch_1">
   <path d="M 0 265.69625 
L 404.871875 265.69625 
L 404.871875 0 
L 0 0 
z
" style="fill:#ffffff;"/>
  </g>
  <g id="axes_1">
   <g id="patch_2">
    <path d="M 53.328125 109.536364 
L 388.128125 109.536364 
L 388.128125 10.7 
L 53.328125 10.7 
z
" style="fill:#ffffff;"/>
   </g>
   <g id="matplotlib.axis_1">
    <g id="xtick_1">
     <g id="line2d_1">
      <defs>
       <path d="M 0 0 
L 0 3.5 
" id="m2f5bcd9ff8" style="stroke:#000000;stroke-width:0.8;"/>
      </defs>
      <g>
       <use style="stroke:#000000;stroke-width:0.8;" x="53.328125" xlink:href="#m2f5bcd9ff8" y="109.536364"/>
      </g>
     </g>
     <g id="text_1">
      <!-- 0 -->
      <defs>
       <path d="M 31.78125 66.40625 
Q 24.171875 66.40625 20.328125 58.90625 
Q 16.5 51.421875 16.5 36.375 
Q 16.5 21.390625 20.328125 13.890625 
Q 24.171875 6.390625 31.78125 6.390625 
Q 39.453125 6.390625 43.28125 13.890625 
Q 47.125 21.390625 47.125 36.375 
Q 47.125 51.421875 43.28125 58.90625 
Q 39.453125 66.40625 31.78125 66.40625 
z
M 31.78125 74.21875 
Q 44.046875 74.21875 50.515625 64.515625 
Q 56.984375 54.828125 56.984375 36.375 
Q 56.984375 17.96875 50.515625 8.265625 
Q 44.046875 -1.421875 31.78125 -1.421875 
Q 19.53125 -1.421875 13.0625 8.265625 
Q 6.59375 17.96875 6.59375 36.375 
Q 6.59375 54.828125 13.0625 64.515625 
Q 19.53125 74.21875 31.78125 74.21875 
z
" id="DejaVuSans-48"/>
      </defs>
      <g transform="translate(50.146875 124.134801)scale(0.1 -0.1)">
       <use xlink:href="#DejaVuSans-48"/>
      </g>
     </g>
    </g>
    <g id="xtick_2">
     <g id="line2d_2">
      <g>
       <use style="stroke:#000000;stroke-width:0.8;" x="95.178125" xlink:href="#m2f5bcd9ff8" y="109.536364"/>
      </g>
     </g>
     <g id="text_2">
      <!-- 25 -->
      <defs>
       <path d="M 19.1875 8.296875 
L 53.609375 8.296875 
L 53.609375 0 
L 7.328125 0 
L 7.328125 8.296875 
Q 12.9375 14.109375 22.625 23.890625 
Q 32.328125 33.6875 34.8125 36.53125 
Q 39.546875 41.84375 41.421875 45.53125 
Q 43.3125 49.21875 43.3125 52.78125 
Q 43.3125 58.59375 39.234375 62.25 
Q 35.15625 65.921875 28.609375 65.921875 
Q 23.96875 65.921875 18.8125 64.3125 
Q 13.671875 62.703125 7.8125 59.421875 
L 7.8125 69.390625 
Q 13.765625 71.78125 18.9375 73 
Q 24.125 74.21875 28.421875 74.21875 
Q 39.75 74.21875 46.484375 68.546875 
Q 53.21875 62.890625 53.21875 53.421875 
Q 53.21875 48.921875 51.53125 44.890625 
Q 49.859375 40.875 45.40625 35.40625 
Q 44.1875 33.984375 37.640625 27.21875 
Q 31.109375 20.453125 19.1875 8.296875 
z
" id="DejaVuSans-50"/>
       <path d="M 10.796875 72.90625 
L 49.515625 72.90625 
L 49.515625 64.59375 
L 19.828125 64.59375 
L 19.828125 46.734375 
Q 21.96875 47.46875 24.109375 47.828125 
Q 26.265625 48.1875 28.421875 48.1875 
Q 40.625 48.1875 47.75 41.5 
Q 54.890625 34.8125 54.890625 23.390625 
Q 54.890625 11.625 47.5625 5.09375 
Q 40.234375 -1.421875 26.90625 -1.421875 
Q 22.3125 -1.421875 17.546875 -0.640625 
Q 12.796875 0.140625 7.71875 1.703125 
L 7.71875 11.625 
Q 12.109375 9.234375 16.796875 8.0625 
Q 21.484375 6.890625 26.703125 6.890625 
Q 35.15625 6.890625 40.078125 11.328125 
Q 45.015625 15.765625 45.015625 23.390625 
Q 45.015625 31 40.078125 35.4375 
Q 35.15625 39.890625 26.703125 39.890625 
Q 22.75 39.890625 18.8125 39.015625 
Q 14.890625 38.140625 10.796875 36.28125 
z
" id="DejaVuSans-53"/>
      </defs>
      <g transform="translate(88.815625 124.134801)scale(0.1 -0.1)">
       <use xlink:href="#DejaVuSans-50"/>
       <use x="63.623047" xlink:href="#DejaVuSans-53"/>
      </g>
     </g>
    </g>
    <g id="xtick_3">
     <g id="line2d_3">
      <g>
       <use style="stroke:#000000;stroke-width:0.8;" x="137.028125" xlink:href="#m2f5bcd9ff8" y="109.536364"/>
      </g>
     </g>
     <g id="text_3">
      <!-- 50 -->
      <g transform="translate(130.665625 124.134801)scale(0.1 -0.1)">
       <use xlink:href="#DejaVuSans-53"/>
       <use x="63.623047" xlink:href="#DejaVuSans-48"/>
      </g>
     </g>
    </g>
    <g id="xtick_4">
     <g id="line2d_4">
      <g>
       <use style="stroke:#000000;stroke-width:0.8;" x="178.878125" xlink:href="#m2f5bcd9ff8" y="109.536364"/>
      </g>
     </g>
     <g id="text_4">
      <!-- 75 -->
      <defs>
       <path d="M 8.203125 72.90625 
L 55.078125 72.90625 
L 55.078125 68.703125 
L 28.609375 0 
L 18.3125 0 
L 43.21875 64.59375 
L 8.203125 64.59375 
z
" id="DejaVuSans-55"/>
      </defs>
      <g transform="translate(172.515625 124.134801)scale(0.1 -0.1)">
       <use xlink:href="#DejaVuSans-55"/>
       <use x="63.623047" xlink:href="#DejaVuSans-53"/>
      </g>
     </g>
    </g>
    <g id="xtick_5">
     <g id="line2d_5">
      <g>
       <use style="stroke:#000000;stroke-width:0.8;" x="220.728125" xlink:href="#m2f5bcd9ff8" y="109.536364"/>
      </g>
     </g>
     <g id="text_5">
      <!-- 100 -->
      <defs>
       <path d="M 12.40625 8.296875 
L 28.515625 8.296875 
L 28.515625 63.921875 
L 10.984375 60.40625 
L 10.984375 69.390625 
L 28.421875 72.90625 
L 38.28125 72.90625 
L 38.28125 8.296875 
L 54.390625 8.296875 
L 54.390625 0 
L 12.40625 0 
z
" id="DejaVuSans-49"/>
      </defs>
      <g transform="translate(211.184375 124.134801)scale(0.1 -0.1)">
       <use xlink:href="#DejaVuSans-49"/>
       <use x="63.623047" xlink:href="#DejaVuSans-48"/>
       <use x="127.246094" xlink:href="#DejaVuSans-48"/>
      </g>
     </g>
    </g>
    <g id="xtick_6">
     <g id="line2d_6">
      <g>
       <use style="stroke:#000000;stroke-width:0.8;" x="262.578125" xlink:href="#m2f5bcd9ff8" y="109.536364"/>
      </g>
     </g>
     <g id="text_6">
      <!-- 125 -->
      <g transform="translate(253.034375 124.134801)scale(0.1 -0.1)">
       <use xlink:href="#DejaVuSans-49"/>
       <use x="63.623047" xlink:href="#DejaVuSans-50"/>
       <use x="127.246094" xlink:href="#DejaVuSans-53"/>
      </g>
     </g>
    </g>
    <g id="xtick_7">
     <g id="line2d_7">
      <g>
       <use style="stroke:#000000;stroke-width:0.8;" x="304.428125" xlink:href="#m2f5bcd9ff8" y="109.536364"/>
      </g>
     </g>
     <g id="text_7">
      <!-- 150 -->
      <g transform="translate(294.884375 124.134801)scale(0.1 -0.1)">
       <use xlink:href="#DejaVuSans-49"/>
       <use x="63.623047" xlink:href="#DejaVuSans-53"/>
       <use x="127.246094" xlink:href="#DejaVuSans-48"/>
      </g>
     </g>
    </g>
    <g id="xtick_8">
     <g id="line2d_8">
      <g>
       <use style="stroke:#000000;stroke-width:0.8;" x="346.278125" xlink:href="#m2f5bcd9ff8" y="109.536364"/>
      </g>
     </g>
     <g id="text_8">
      <!-- 175 -->
      <g transform="translate(336.734375 124.134801)scale(0.1 -0.1)">
       <use xlink:href="#DejaVuSans-49"/>
       <use x="63.623047" xlink:href="#DejaVuSans-55"/>
       <use x="127.246094" xlink:href="#DejaVuSans-53"/>
      </g>
     </g>
    </g>
    <g id="xtick_9">
     <g id="line2d_9">
      <g>
       <use style="stroke:#000000;stroke-width:0.8;" x="388.128125" xlink:href="#m2f5bcd9ff8" y="109.536364"/>
      </g>
     </g>
     <g id="text_9">
      <!-- 200 -->
      <g transform="translate(378.584375 124.134801)scale(0.1 -0.1)">
       <use xlink:href="#DejaVuSans-50"/>
       <use x="63.623047" xlink:href="#DejaVuSans-48"/>
       <use x="127.246094" xlink:href="#DejaVuSans-48"/>
      </g>
     </g>
    </g>
    <g id="text_10">
     <!-- time [s] -->
     <defs>
      <path d="M 18.3125 70.21875 
L 18.3125 54.6875 
L 36.8125 54.6875 
L 36.8125 47.703125 
L 18.3125 47.703125 
L 18.3125 18.015625 
Q 18.3125 11.328125 20.140625 9.421875 
Q 21.96875 7.515625 27.59375 7.515625 
L 36.8125 7.515625 
L 36.8125 0 
L 27.59375 0 
Q 17.1875 0 13.234375 3.875 
Q 9.28125 7.765625 9.28125 18.015625 
L 9.28125 47.703125 
L 2.6875 47.703125 
L 2.6875 54.6875 
L 9.28125 54.6875 
L 9.28125 70.21875 
z
" id="DejaVuSans-116"/>
      <path d="M 9.421875 54.6875 
L 18.40625 54.6875 
L 18.40625 0 
L 9.421875 0 
z
M 9.421875 75.984375 
L 18.40625 75.984375 
L 18.40625 64.59375 
L 9.421875 64.59375 
z
" id="DejaVuSans-105"/>
      <path d="M 52 44.1875 
Q 55.375 50.25 60.0625 53.125 
Q 64.75 56 71.09375 56 
Q 79.640625 56 84.28125 50.015625 
Q 88.921875 44.046875 88.921875 33.015625 
L 88.921875 0 
L 79.890625 0 
L 79.890625 32.71875 
Q 79.890625 40.578125 77.09375 44.375 
Q 74.3125 48.1875 68.609375 48.1875 
Q 61.625 48.1875 57.5625 43.546875 
Q 53.515625 38.921875 53.515625 30.90625 
L 53.515625 0 
L 44.484375 0 
L 44.484375 32.71875 
Q 44.484375 40.625 41.703125 44.40625 
Q 38.921875 48.1875 33.109375 48.1875 
Q 26.21875 48.1875 22.15625 43.53125 
Q 18.109375 38.875 18.109375 30.90625 
L 18.109375 0 
L 9.078125 0 
L 9.078125 54.6875 
L 18.109375 54.6875 
L 18.109375 46.1875 
Q 21.1875 51.21875 25.484375 53.609375 
Q 29.78125 56 35.6875 56 
Q 41.65625 56 45.828125 52.96875 
Q 50 49.953125 52 44.1875 
z
" id="DejaVuSans-109"/>
      <path d="M 56.203125 29.59375 
L 56.203125 25.203125 
L 14.890625 25.203125 
Q 15.484375 15.921875 20.484375 11.0625 
Q 25.484375 6.203125 34.421875 6.203125 
Q 39.59375 6.203125 44.453125 7.46875 
Q 49.3125 8.734375 54.109375 11.28125 
L 54.109375 2.78125 
Q 49.265625 0.734375 44.1875 -0.34375 
Q 39.109375 -1.421875 33.890625 -1.421875 
Q 20.796875 -1.421875 13.15625 6.1875 
Q 5.515625 13.8125 5.515625 26.8125 
Q 5.515625 40.234375 12.765625 48.109375 
Q 20.015625 56 32.328125 56 
Q 43.359375 56 49.78125 48.890625 
Q 56.203125 41.796875 56.203125 29.59375 
z
M 47.21875 32.234375 
Q 47.125 39.59375 43.09375 43.984375 
Q 39.0625 48.390625 32.421875 48.390625 
Q 24.90625 48.390625 20.390625 44.140625 
Q 15.875 39.890625 15.1875 32.171875 
z
" id="DejaVuSans-101"/>
      <path id="DejaVuSans-32"/>
      <path d="M 8.59375 75.984375 
L 29.296875 75.984375 
L 29.296875 69 
L 17.578125 69 
L 17.578125 -6.203125 
L 29.296875 -6.203125 
L 29.296875 -13.1875 
L 8.59375 -13.1875 
z
" id="DejaVuSans-91"/>
      <path d="M 44.28125 53.078125 
L 44.28125 44.578125 
Q 40.484375 46.53125 36.375 47.5 
Q 32.28125 48.484375 27.875 48.484375 
Q 21.1875 48.484375 17.84375 46.4375 
Q 14.5 44.390625 14.5 40.28125 
Q 14.5 37.15625 16.890625 35.375 
Q 19.28125 33.59375 26.515625 31.984375 
L 29.59375 31.296875 
Q 39.15625 29.25 43.1875 25.515625 
Q 47.21875 21.78125 47.21875 15.09375 
Q 47.21875 7.46875 41.1875 3.015625 
Q 35.15625 -1.421875 24.609375 -1.421875 
Q 20.21875 -1.421875 15.453125 -0.5625 
Q 10.6875 0.296875 5.421875 2 
L 5.421875 11.28125 
Q 10.40625 8.6875 15.234375 7.390625 
Q 20.0625 6.109375 24.8125 6.109375 
Q 31.15625 6.109375 34.5625 8.28125 
Q 37.984375 10.453125 37.984375 14.40625 
Q 37.984375 18.0625 35.515625 20.015625 
Q 33.0625 21.96875 24.703125 23.78125 
L 21.578125 24.515625 
Q 13.234375 26.265625 9.515625 29.90625 
Q 5.8125 33.546875 5.8125 39.890625 
Q 5.8125 47.609375 11.28125 51.796875 
Q 16.75 56 26.8125 56 
Q 31.78125 56 36.171875 55.265625 
Q 40.578125 54.546875 44.28125 53.078125 
z
" id="DejaVuSans-115"/>
      <path d="M 30.421875 75.984375 
L 30.421875 -13.1875 
L 9.71875 -13.1875 
L 9.71875 -6.203125 
L 21.390625 -6.203125 
L 21.390625 69 
L 9.71875 69 
L 9.71875 75.984375 
z
" id="DejaVuSans-93"/>
     </defs>
     <g transform="translate(201.336719 137.812926)scale(0.1 -0.1)">
      <use xlink:href="#DejaVuSans-116"/>
      <use x="39.208984" xlink:href="#DejaVuSans-105"/>
      <use x="66.992188" xlink:href="#DejaVuSans-109"/>
      <use x="164.404297" xlink:href="#DejaVuSans-101"/>
      <use x="225.927734" xlink:href="#DejaVuSans-32"/>
      <use x="257.714844" xlink:href="#DejaVuSans-91"/>
      <use x="296.728516" xlink:href="#DejaVuSans-115"/>
      <use x="348.828125" xlink:href="#DejaVuSans-93"/>
     </g>
    </g>
   </g>
   <g id="matplotlib.axis_2">
    <g id="ytick_1">
     <g id="line2d_10">
      <defs>
       <path d="M 0 0 
L -3.5 0 
" id="m19f9b4d194" style="stroke:#000000;stroke-width:0.8;"/>
      </defs>
      <g>
       <use style="stroke:#000000;stroke-width:0.8;" x="53.328125" xlink:href="#m19f9b4d194" y="109.536364"/>
      </g>
     </g>
     <g id="text_11">
      <!-- 0 -->
      <g transform="translate(39.965625 113.335582)scale(0.1 -0.1)">
       <use xlink:href="#DejaVuSans-48"/>
      </g>
     </g>
    </g>
    <g id="ytick_2">
     <g id="line2d_11">
      <g>
       <use style="stroke:#000000;stroke-width:0.8;" x="53.328125" xlink:href="#m19f9b4d194" y="83.526794"/>
      </g>
     </g>
     <g id="text_12">
      <!-- 500 -->
      <g transform="translate(27.240625 87.326013)scale(0.1 -0.1)">
       <use xlink:href="#DejaVuSans-53"/>
       <use x="63.623047" xlink:href="#DejaVuSans-48"/>
       <use x="127.246094" xlink:href="#DejaVuSans-48"/>
      </g>
     </g>
    </g>
    <g id="ytick_3">
     <g id="line2d_12">
      <g>
       <use style="stroke:#000000;stroke-width:0.8;" x="53.328125" xlink:href="#m19f9b4d194" y="57.517225"/>
      </g>
     </g>
     <g id="text_13">
      <!-- 1000 -->
      <g transform="translate(20.878125 61.316444)scale(0.1 -0.1)">
       <use xlink:href="#DejaVuSans-49"/>
       <use x="63.623047" xlink:href="#DejaVuSans-48"/>
       <use x="127.246094" xlink:href="#DejaVuSans-48"/>
       <use x="190.869141" xlink:href="#DejaVuSans-48"/>
      </g>
     </g>
    </g>
    <g id="ytick_4">
     <g id="line2d_13">
      <g>
       <use style="stroke:#000000;stroke-width:0.8;" x="53.328125" xlink:href="#m19f9b4d194" y="31.507656"/>
      </g>
     </g>
     <g id="text_14">
      <!-- 1500 -->
      <g transform="translate(20.878125 35.306874)scale(0.1 -0.1)">
       <use xlink:href="#DejaVuSans-49"/>
       <use x="63.623047" xlink:href="#DejaVuSans-53"/>
       <use x="127.246094" xlink:href="#DejaVuSans-48"/>
       <use x="190.869141" xlink:href="#DejaVuSans-48"/>
      </g>
     </g>
    </g>
    <g id="text_15">
     <!-- N(t) -->
     <defs>
      <path d="M 9.8125 72.90625 
L 23.09375 72.90625 
L 55.421875 11.921875 
L 55.421875 72.90625 
L 64.984375 72.90625 
L 64.984375 0 
L 51.703125 0 
L 19.390625 60.984375 
L 19.390625 0 
L 9.8125 0 
z
" id="DejaVuSans-78"/>
      <path d="M 31 75.875 
Q 24.46875 64.65625 21.28125 53.65625 
Q 18.109375 42.671875 18.109375 31.390625 
Q 18.109375 20.125 21.3125 9.0625 
Q 24.515625 -2 31 -13.1875 
L 23.1875 -13.1875 
Q 15.875 -1.703125 12.234375 9.375 
Q 8.59375 20.453125 8.59375 31.390625 
Q 8.59375 42.28125 12.203125 53.3125 
Q 15.828125 64.359375 23.1875 75.875 
z
" id="DejaVuSans-40"/>
      <path d="M 8.015625 75.875 
L 15.828125 75.875 
Q 23.140625 64.359375 26.78125 53.3125 
Q 30.421875 42.28125 30.421875 31.390625 
Q 30.421875 20.453125 26.78125 9.375 
Q 23.140625 -1.703125 15.828125 -13.1875 
L 8.015625 -13.1875 
Q 14.5 -2 17.703125 9.0625 
Q 20.90625 20.125 20.90625 31.390625 
Q 20.90625 42.671875 17.703125 53.65625 
Q 14.5 64.65625 8.015625 75.875 
z
" id="DejaVuSans-41"/>
     </defs>
     <g transform="translate(14.798438 69.720526)rotate(-90)scale(0.1 -0.1)">
      <use xlink:href="#DejaVuSans-78"/>
      <use x="74.804688" xlink:href="#DejaVuSans-40"/>
      <use x="113.818359" xlink:href="#DejaVuSans-116"/>
      <use x="153.027344" xlink:href="#DejaVuSans-41"/>
     </g>
    </g>
   </g>
   <g id="line2d_14">
    <path clip-path="url(#p140648bceb)" d="M 53.328125 109.536364 
L 62.535125 109.369333 
L 64.209125 109.178552 
L 65.046125 108.819942 
L 65.883125 101.494479 
L 66.720125 70.830886 
L 67.557125 52.34589 
L 68.394125 43.476618 
L 69.231125 40.441175 
L 70.068125 40.867841 
L 70.905125 43.289875 
L 71.742125 46.802179 
L 76.764125 70.952821 
L 78.438125 77.505291 
L 80.112125 83.073246 
L 81.786125 87.74947 
L 83.460125 91.65122 
L 85.134125 94.896081 
L 86.808125 97.592813 
L 88.482125 99.83903 
L 90.156125 101.722654 
L 91.830125 103.32709 
L 96.015125 106.922067 
L 97.689125 109.038227 
L 98.526125 109.395895 
L 101.037125 109.461976 
L 105.222125 109.327731 
L 106.896125 109.053432 
L 107.733125 108.105334 
L 108.570125 86.714954 
L 109.407125 62.014598 
L 110.244125 49.070737 
L 111.081125 43.534253 
L 111.918125 42.435594 
L 112.755125 43.934226 
L 113.592125 46.894513 
L 115.266125 54.675357 
L 117.777125 66.744995 
L 119.451125 73.837291 
L 121.125125 79.950262 
L 122.799125 85.123625 
L 124.473125 89.458438 
L 126.147125 93.071034 
L 127.821125 96.074588 
L 129.495125 98.57259 
L 131.169125 100.657917 
L 132.843125 102.415492 
L 135.354125 104.62691 
L 137.865125 106.77345 
L 138.702125 107.738308 
L 139.539125 108.890561 
L 140.376125 109.370869 
L 142.050125 109.464577 
L 146.235125 109.385598 
L 147.909125 109.260411 
L 148.746125 109.101142 
L 149.583125 108.481143 
L 150.420125 92.298783 
L 151.257125 65.322618 
L 152.094125 50.677852 
L 152.931125 44.110132 
L 153.768125 42.39932 
L 154.605125 43.544738 
L 155.442125 46.311419 
L 157.116125 53.961044 
L 159.627125 66.086481 
L 161.301125 73.261183 
L 162.975125 79.458888 
L 164.649125 84.710122 
L 166.323125 89.113044 
L 167.997125 92.783637 
L 169.671125 95.83572 
L 171.345125 98.373713 
L 173.019125 100.49136 
L 174.693125 102.274069 
L 177.204125 104.507901 
L 179.715125 106.630486 
L 180.552125 107.54987 
L 181.389125 108.712956 
L 182.226125 109.336289 
L 183.900125 109.463537 
L 188.085125 109.391954 
L 189.759125 109.277416 
L 190.596125 109.140218 
L 191.433125 108.697655 
L 192.270125 97.916231 
L 193.107125 69.014917 
L 193.944125 52.523142 
L 194.781125 44.828946 
L 195.618125 42.446997 
L 196.455125 43.202804 
L 197.292125 45.753467 
L 198.966125 53.249782 
L 201.477125 65.42154 
L 203.151125 72.677621 
L 204.825125 78.960361 
L 206.499125 84.290238 
L 208.173125 88.762151 
L 209.847125 92.491598 
L 211.521125 95.592991 
L 213.195125 98.171679 
L 214.869125 100.322283 
L 216.543125 102.130751 
L 219.054125 104.388258 
L 221.565125 106.492357 
L 222.402125 107.371268 
L 223.239125 108.514008 
L 224.076125 109.288189 
L 224.913125 109.435447 
L 228.261125 109.44481 
L 231.609125 109.292657 
L 232.446125 109.172924 
L 233.283125 108.837602 
L 234.120125 102.904536 
L 234.957125 73.118082 
L 235.794125 54.628252 
L 236.631125 45.704198 
L 237.468125 42.586975 
L 238.305125 42.913575 
L 239.142125 45.223832 
L 239.979125 48.617819 
L 245.001125 72.08664 
L 246.675125 78.454642 
L 248.349125 83.8639 
L 250.023125 88.405683 
L 251.697125 92.194849 
L 253.371125 95.346347 
L 255.045125 97.966439 
L 256.719125 100.150643 
L 258.393125 101.985486 
L 260.904125 104.267887 
L 263.415125 106.358345 
L 264.252125 107.201926 
L 265.089125 108.304741 
L 265.926125 109.221321 
L 266.763125 109.425043 
L 269.274125 109.459375 
L 273.459125 109.306407 
L 274.296125 109.200784 
L 275.133125 108.935734 
L 275.970125 106.125388 
L 276.807125 77.652043 
L 277.644125 57.016501 
L 278.481125 46.750488 
L 279.318125 42.828275 
L 280.155125 42.682607 
L 280.992125 44.725923 
L 281.829125 47.979364 
L 284.340125 60.064931 
L 286.014125 67.89411 
L 287.688125 74.83857 
L 289.362125 80.802503 
L 291.036125 85.839987 
L 292.710125 90.056439 
L 294.384125 93.568489 
L 296.058125 96.488068 
L 297.732125 98.916999 
L 299.406125 100.946679 
L 301.080125 102.661301 
L 303.591125 104.836351 
L 305.265125 106.227789 
L 306.102125 107.040937 
L 307.776125 109.129499 
L 308.613125 109.410477 
L 311.124125 109.460936 
L 315.309125 109.318884 
L 316.146125 109.224854 
L 316.983125 109.008693 
L 317.820125 107.576648 
L 319.494125 59.712834 
L 320.331125 47.983643 
L 321.168125 43.180706 
L 322.005125 42.51597 
L 322.842125 44.263493 
L 323.679125 47.358654 
L 325.353125 55.226586 
L 327.864125 67.24737 
L 329.538125 74.275646 
L 331.212125 80.323638 
L 332.886125 85.437595 
L 334.560125 89.720588 
L 336.234125 93.289127 
L 337.908125 96.255861 
L 339.582125 98.723556 
L 341.256125 100.784438 
L 342.930125 102.523089 
L 345.441125 104.718159 
L 347.952125 106.887311 
L 349.626125 109.007101 
L 350.463125 109.39081 
L 352.137125 109.464577 
L 356.322125 109.3804 
L 357.996125 109.245904 
L 358.833125 109.065343 
L 359.670125 108.213943 
L 360.507125 87.980131 
L 361.344125 62.743933 
L 362.181125 49.420874 
L 363.018125 43.654917 
L 363.855125 42.420241 
L 364.692125 43.840589 
L 365.529125 46.75817 
L 367.203125 54.510647 
L 369.714125 66.593927 
L 371.388125 73.705282 
L 373.062125 79.837735 
L 374.736125 85.028962 
L 376.410125 89.379382 
L 378.084125 93.005257 
L 378.921125 94.582252 
L 378.921125 94.582252 
" style="fill:none;stroke:#ff7f0e;stroke-linecap:square;stroke-width:1.5;"/>
   </g>
   <g id="line2d_15">
    <path clip-path="url(#p140648bceb)" d="M 53.328125 109.536364 
L 54.165125 99.113004 
L 55.839125 47.234326 
L 56.676125 32.546837 
L 57.513125 25.700703 
L 58.350125 24.470326 
L 59.187125 27.133889 
L 60.024125 32.488865 
L 60.861125 39.728647 
L 62.535125 57.996838 
L 64.209125 80.351404 
L 65.883125 108.955655 
L 66.720125 109.497557 
L 73.416125 109.509834 
L 88.482125 109.373674 
L 93.504125 109.168171 
L 95.178125 108.974814 
L 96.015125 108.753147 
L 96.852125 108.119178 
L 97.689125 104.705361 
L 98.526125 91.146489 
L 99.363125 72.043985 
L 100.200125 57.439141 
L 101.037125 49.305292 
L 101.874125 46.587743 
L 102.711125 47.917075 
L 103.548125 52.188376 
L 104.385125 58.622044 
L 105.222125 66.732014 
L 106.059125 76.325647 
L 106.896125 87.658336 
L 107.733125 102.154335 
L 108.570125 109.454694 
L 111.081125 109.514516 
L 127.821125 109.422442 
L 134.517125 109.231505 
L 137.028125 108.999761 
L 137.865125 108.805527 
L 138.702125 108.299895 
L 139.539125 105.812965 
L 140.376125 94.276809 
L 141.213125 75.192023 
L 142.050125 59.497367 
L 142.887125 50.287701 
L 143.724125 46.733241 
L 144.561125 47.449499 
L 145.398125 51.275426 
L 146.235125 57.376899 
L 147.072125 65.218916 
L 147.909125 74.553827 
L 148.746125 85.532663 
L 149.583125 99.298177 
L 150.420125 109.402261 
L 152.094125 109.511811 
L 167.160125 109.455214 
L 175.530125 109.278801 
L 178.878125 109.02239 
L 179.715125 108.850392 
L 180.552125 108.43855 
L 181.389125 106.626661 
L 182.226125 97.15028 
L 183.900125 61.757162 
L 184.737125 51.440127 
L 185.574125 47.005962 
L 186.411125 47.074263 
L 187.248125 50.429958 
L 188.085125 56.183287 
L 188.922125 63.749772 
L 189.759125 72.829458 
L 190.596125 83.484143 
L 192.270125 109.255223 
L 193.107125 109.499742 
L 201.477125 109.503488 
L 215.706125 109.342002 
L 219.891125 109.135025 
L 221.565125 108.889309 
L 222.402125 108.547432 
L 223.239125 107.213472 
L 224.076125 99.693445 
L 225.750125 64.219089 
L 226.587125 52.770504 
L 227.424125 47.413339 
L 228.261125 46.79696 
L 229.098125 49.655779 
L 229.935125 55.043479 
L 230.772125 62.325296 
L 231.609125 71.150798 
L 232.446125 81.503986 
L 233.283125 94.053274 
L 234.120125 108.728174 
L 234.957125 109.4948 
L 241.653125 109.509054 
L 256.719125 109.367659 
L 261.741125 109.147609 
L 263.415125 108.923453 
L 264.252125 108.634812 
L 265.089125 107.634927 
L 265.926125 101.854871 
L 267.600125 66.879548 
L 268.437125 54.285893 
L 269.274125 47.962686 
L 270.111125 46.623227 
L 270.948125 48.956807 
L 271.785125 53.959891 
L 272.622125 60.946426 
L 273.459125 69.516639 
L 274.296125 79.585387 
L 275.133125 91.645395 
L 275.970125 107.0837 
L 276.807125 109.487102 
L 281.829125 109.512955 
L 298.569125 109.371076 
L 303.591125 109.159469 
L 305.265125 108.953713 
L 306.102125 108.706348 
L 306.939125 107.940261 
L 307.776125 103.615218 
L 308.613125 88.617276 
L 309.450125 69.730096 
L 310.287125 55.992549 
L 311.124125 48.661439 
L 311.961125 46.559013 
L 312.798125 48.337261 
L 313.635125 52.935231 
L 314.472125 59.614458 
L 315.309125 67.926362 
L 316.146125 77.723153 
L 316.983125 89.353804 
L 317.820125 104.404589 
L 318.657125 109.47342 
L 322.005125 109.51488 
L 339.582125 109.392096 
L 345.441125 109.170676 
L 347.115125 108.980773 
L 347.952125 108.765968 
L 348.789125 108.16537 
L 349.626125 104.990011 
L 350.463125 91.886316 
L 351.300125 72.756393 
L 352.137125 57.895846 
L 352.974125 49.517211 
L 353.811125 46.610571 
L 354.648125 47.80163 
L 355.485125 51.972421 
L 356.322125 58.330876 
L 357.159125 66.379695 
L 357.996125 75.913268 
L 358.833125 87.161382 
L 359.670125 101.484917 
L 360.507125 109.446371 
L 363.018125 109.514516 
L 379.758125 109.422962 
L 386.454125 109.233333 
L 388.128125 109.110715 
L 388.128125 109.110715 
" style="fill:none;stroke:#1f77b4;stroke-linecap:square;stroke-width:1.5;"/>
   </g>
   <g id="patch_3">
    <path d="M 53.328125 109.536364 
L 53.328125 10.7 
" style="fill:none;stroke:#000000;stroke-linecap:square;stroke-linejoin:miter;stroke-width:0.8;"/>
   </g>
   <g id="patch_4">
    <path d="M 388.128125 109.536364 
L 388.128125 10.7 
" style="fill:none;stroke:#000000;stroke-linecap:square;stroke-linejoin:miter;stroke-width:0.8;"/>
   </g>
   <g id="patch_5">
    <path d="M 53.328125 109.536364 
L 388.128125 109.536364 
" style="fill:none;stroke:#000000;stroke-linecap:square;stroke-linejoin:miter;stroke-width:0.8;"/>
   </g>
   <g id="patch_6">
    <path d="M 53.328125 10.7 
L 388.128125 10.7 
" style="fill:none;stroke:#000000;stroke-linecap:square;stroke-linejoin:miter;stroke-width:0.8;"/>
   </g>
   <g id="legend_1">
    <g id="patch_7">
     <path d="M 173.833594 33.378125 
L 267.622656 33.378125 
Q 269.622656 33.378125 269.622656 31.378125 
L 269.622656 17.7 
Q 269.622656 15.7 267.622656 15.7 
L 173.833594 15.7 
Q 171.833594 15.7 171.833594 17.7 
L 171.833594 31.378125 
Q 171.833594 33.378125 173.833594 33.378125 
z
" style="fill:#ffffff;opacity:0.8;stroke:#cccccc;stroke-linejoin:miter;"/>
    </g>
    <g id="line2d_16">
     <path d="M 175.833594 23.798437 
L 195.833594 23.798437 
" style="fill:none;stroke:#ff7f0e;stroke-linecap:square;stroke-width:1.5;"/>
    </g>
    <g id="line2d_17"/>
    <g id="text_16">
     <!-- R -->
     <defs>
      <path d="M 44.390625 34.1875 
Q 47.5625 33.109375 50.5625 29.59375 
Q 53.5625 26.078125 56.59375 19.921875 
L 66.609375 0 
L 56 0 
L 46.6875 18.703125 
Q 43.0625 26.03125 39.671875 28.421875 
Q 36.28125 30.8125 30.421875 30.8125 
L 19.671875 30.8125 
L 19.671875 0 
L 9.8125 0 
L 9.8125 72.90625 
L 32.078125 72.90625 
Q 44.578125 72.90625 50.734375 67.671875 
Q 56.890625 62.453125 56.890625 51.90625 
Q 56.890625 45.015625 53.6875 40.46875 
Q 50.484375 35.9375 44.390625 34.1875 
z
M 19.671875 64.796875 
L 19.671875 38.921875 
L 32.078125 38.921875 
Q 39.203125 38.921875 42.84375 42.21875 
Q 46.484375 45.515625 46.484375 51.90625 
Q 46.484375 58.296875 42.84375 61.546875 
Q 39.203125 64.796875 32.078125 64.796875 
z
" id="DejaVuSans-82"/>
     </defs>
     <g transform="translate(203.833594 27.298437)scale(0.1 -0.1)">
      <use xlink:href="#DejaVuSans-82"/>
     </g>
    </g>
    <g id="line2d_18">
     <path d="M 230.782031 23.798437 
L 250.782031 23.798437 
" style="fill:none;stroke:#1f77b4;stroke-linecap:square;stroke-width:1.5;"/>
    </g>
    <g id="line2d_19"/>
    <g id="text_17">
     <!-- A -->
     <defs>
      <path d="M 34.1875 63.1875 
L 20.796875 26.90625 
L 47.609375 26.90625 
z
M 28.609375 72.90625 
L 39.796875 72.90625 
L 67.578125 0 
L 57.328125 0 
L 50.6875 18.703125 
L 17.828125 18.703125 
L 11.1875 0 
L 0.78125 0 
z
" id="DejaVuSans-65"/>
     </defs>
     <g transform="translate(258.782031 27.298437)scale(0.1 -0.1)">
      <use xlink:href="#DejaVuSans-65"/>
     </g>
    </g>
   </g>
  </g>
  <g id="axes_2">
   <g id="patch_8">
    <path d="M 53.328125 228.14 
L 388.128125 228.14 
L 388.128125 129.303636 
L 53.328125 129.303636 
z
" style="fill:#ffffff;"/>
   </g>
   <g id="matplotlib.axis_3">
    <g id="xtick_10">
     <g id="line2d_20">
      <g>
       <use style="stroke:#000000;stroke-width:0.8;" x="53.328125" xlink:href="#m2f5bcd9ff8" y="228.14"/>
      </g>
     </g>
     <g id="text_18">
      <!-- 0 -->
      <g transform="translate(50.146875 242.738437)scale(0.1 -0.1)">
       <use xlink:href="#DejaVuSans-48"/>
      </g>
     </g>
    </g>
    <g id="xtick_11">
     <g id="line2d_21">
      <g>
       <use style="stroke:#000000;stroke-width:0.8;" x="95.178125" xlink:href="#m2f5bcd9ff8" y="228.14"/>
      </g>
     </g>
     <g id="text_19">
      <!-- 25 -->
      <g transform="translate(88.815625 242.738437)scale(0.1 -0.1)">
       <use xlink:href="#DejaVuSans-50"/>
       <use x="63.623047" xlink:href="#DejaVuSans-53"/>
      </g>
     </g>
    </g>
    <g id="xtick_12">
     <g id="line2d_22">
      <g>
       <use style="stroke:#000000;stroke-width:0.8;" x="137.028125" xlink:href="#m2f5bcd9ff8" y="228.14"/>
      </g>
     </g>
     <g id="text_20">
      <!-- 50 -->
      <g transform="translate(130.665625 242.738437)scale(0.1 -0.1)">
       <use xlink:href="#DejaVuSans-53"/>
       <use x="63.623047" xlink:href="#DejaVuSans-48"/>
      </g>
     </g>
    </g>
    <g id="xtick_13">
     <g id="line2d_23">
      <g>
       <use style="stroke:#000000;stroke-width:0.8;" x="178.878125" xlink:href="#m2f5bcd9ff8" y="228.14"/>
      </g>
     </g>
     <g id="text_21">
      <!-- 75 -->
      <g transform="translate(172.515625 242.738437)scale(0.1 -0.1)">
       <use xlink:href="#DejaVuSans-55"/>
       <use x="63.623047" xlink:href="#DejaVuSans-53"/>
      </g>
     </g>
    </g>
    <g id="xtick_14">
     <g id="line2d_24">
      <g>
       <use style="stroke:#000000;stroke-width:0.8;" x="220.728125" xlink:href="#m2f5bcd9ff8" y="228.14"/>
      </g>
     </g>
     <g id="text_22">
      <!-- 100 -->
      <g transform="translate(211.184375 242.738437)scale(0.1 -0.1)">
       <use xlink:href="#DejaVuSans-49"/>
       <use x="63.623047" xlink:href="#DejaVuSans-48"/>
       <use x="127.246094" xlink:href="#DejaVuSans-48"/>
      </g>
     </g>
    </g>
    <g id="xtick_15">
     <g id="line2d_25">
      <g>
       <use style="stroke:#000000;stroke-width:0.8;" x="262.578125" xlink:href="#m2f5bcd9ff8" y="228.14"/>
      </g>
     </g>
     <g id="text_23">
      <!-- 125 -->
      <g transform="translate(253.034375 242.738437)scale(0.1 -0.1)">
       <use xlink:href="#DejaVuSans-49"/>
       <use x="63.623047" xlink:href="#DejaVuSans-50"/>
       <use x="127.246094" xlink:href="#DejaVuSans-53"/>
      </g>
     </g>
    </g>
    <g id="xtick_16">
     <g id="line2d_26">
      <g>
       <use style="stroke:#000000;stroke-width:0.8;" x="304.428125" xlink:href="#m2f5bcd9ff8" y="228.14"/>
      </g>
     </g>
     <g id="text_24">
      <!-- 150 -->
      <g transform="translate(294.884375 242.738437)scale(0.1 -0.1)">
       <use xlink:href="#DejaVuSans-49"/>
       <use x="63.623047" xlink:href="#DejaVuSans-53"/>
       <use x="127.246094" xlink:href="#DejaVuSans-48"/>
      </g>
     </g>
    </g>
    <g id="xtick_17">
     <g id="line2d_27">
      <g>
       <use style="stroke:#000000;stroke-width:0.8;" x="346.278125" xlink:href="#m2f5bcd9ff8" y="228.14"/>
      </g>
     </g>
     <g id="text_25">
      <!-- 175 -->
      <g transform="translate(336.734375 242.738437)scale(0.1 -0.1)">
       <use xlink:href="#DejaVuSans-49"/>
       <use x="63.623047" xlink:href="#DejaVuSans-55"/>
       <use x="127.246094" xlink:href="#DejaVuSans-53"/>
      </g>
     </g>
    </g>
    <g id="xtick_18">
     <g id="line2d_28">
      <g>
       <use style="stroke:#000000;stroke-width:0.8;" x="388.128125" xlink:href="#m2f5bcd9ff8" y="228.14"/>
      </g>
     </g>
     <g id="text_26">
      <!-- 200 -->
      <g transform="translate(378.584375 242.738437)scale(0.1 -0.1)">
       <use xlink:href="#DejaVuSans-50"/>
       <use x="63.623047" xlink:href="#DejaVuSans-48"/>
       <use x="127.246094" xlink:href="#DejaVuSans-48"/>
      </g>
     </g>
    </g>
    <g id="text_27">
     <!-- time [s] -->
     <g transform="translate(201.336719 256.416562)scale(0.1 -0.1)">
      <use xlink:href="#DejaVuSans-116"/>
      <use x="39.208984" xlink:href="#DejaVuSans-105"/>
      <use x="66.992188" xlink:href="#DejaVuSans-109"/>
      <use x="164.404297" xlink:href="#DejaVuSans-101"/>
      <use x="225.927734" xlink:href="#DejaVuSans-32"/>
      <use x="257.714844" xlink:href="#DejaVuSans-91"/>
      <use x="296.728516" xlink:href="#DejaVuSans-115"/>
      <use x="348.828125" xlink:href="#DejaVuSans-93"/>
     </g>
    </g>
   </g>
   <g id="matplotlib.axis_4">
    <g id="ytick_5">
     <g id="line2d_29">
      <g>
       <use style="stroke:#000000;stroke-width:0.8;" x="53.328125" xlink:href="#m19f9b4d194" y="228.14"/>
      </g>
     </g>
     <g id="text_28">
      <!-- 0 -->
      <g transform="translate(39.965625 231.939219)scale(0.1 -0.1)">
       <use xlink:href="#DejaVuSans-48"/>
      </g>
     </g>
    </g>
    <g id="ytick_6">
     <g id="line2d_30">
      <g>
       <use style="stroke:#000000;stroke-width:0.8;" x="53.328125" xlink:href="#m19f9b4d194" y="202.130431"/>
      </g>
     </g>
     <g id="text_29">
      <!-- 500 -->
      <g transform="translate(27.240625 205.929649)scale(0.1 -0.1)">
       <use xlink:href="#DejaVuSans-53"/>
       <use x="63.623047" xlink:href="#DejaVuSans-48"/>
       <use x="127.246094" xlink:href="#DejaVuSans-48"/>
      </g>
     </g>
    </g>
    <g id="ytick_7">
     <g id="line2d_31">
      <g>
       <use style="stroke:#000000;stroke-width:0.8;" x="53.328125" xlink:href="#m19f9b4d194" y="176.120861"/>
      </g>
     </g>
     <g id="text_30">
      <!-- 1000 -->
      <g transform="translate(20.878125 179.92008)scale(0.1 -0.1)">
       <use xlink:href="#DejaVuSans-49"/>
       <use x="63.623047" xlink:href="#DejaVuSans-48"/>
       <use x="127.246094" xlink:href="#DejaVuSans-48"/>
       <use x="190.869141" xlink:href="#DejaVuSans-48"/>
      </g>
     </g>
    </g>
    <g id="ytick_8">
     <g id="line2d_32">
      <g>
       <use style="stroke:#000000;stroke-width:0.8;" x="53.328125" xlink:href="#m19f9b4d194" y="150.111292"/>
      </g>
     </g>
     <g id="text_31">
      <!-- 1500 -->
      <g transform="translate(20.878125 153.910511)scale(0.1 -0.1)">
       <use xlink:href="#DejaVuSans-49"/>
       <use x="63.623047" xlink:href="#DejaVuSans-53"/>
       <use x="127.246094" xlink:href="#DejaVuSans-48"/>
       <use x="190.869141" xlink:href="#DejaVuSans-48"/>
      </g>
     </g>
    </g>
    <g id="text_32">
     <!-- N(t) -->
     <g transform="translate(14.798438 188.324162)rotate(-90)scale(0.1 -0.1)">
      <use xlink:href="#DejaVuSans-78"/>
      <use x="74.804688" xlink:href="#DejaVuSans-40"/>
      <use x="113.818359" xlink:href="#DejaVuSans-116"/>
      <use x="153.027344" xlink:href="#DejaVuSans-41"/>
     </g>
    </g>
   </g>
   <g id="line2d_33">
    <path clip-path="url(#p57f47c0e57)" d="M 53.328125 228.14 
L 60.024125 228.087981 
L 63.372125 227.827885 
L 65.046125 227.879904 
L 66.720125 206.500038 
L 68.394125 171.647215 
L 70.068125 160.619158 
L 71.742125 162.908 
L 73.416125 170.034622 
L 75.090125 180.906622 
L 76.764125 183.819694 
L 78.438125 192.923043 
L 80.112125 198.54111 
L 81.786125 203.743024 
L 83.460125 208.21667 
L 85.134125 211.85801 
L 86.808125 213.886756 
L 88.482125 221.117416 
L 90.156125 223.198182 
L 91.830125 221.845684 
L 93.504125 219.868957 
L 95.178125 220.337129 
L 96.852125 221.221455 
L 98.526125 224.186545 
L 100.200125 227.619809 
L 101.874125 228.14 
L 103.548125 227.827885 
L 105.222125 228.035962 
L 106.896125 228.035962 
L 108.570125 227.879904 
L 110.244125 194.89977 
L 111.918125 171.95933 
L 113.592125 167.381646 
L 115.266125 171.647215 
L 116.940125 183.819694 
L 118.614125 187.304976 
L 120.288125 191.206411 
L 121.962125 197.240632 
L 123.636125 201.454182 
L 125.310125 203.847062 
L 126.984125 208.8409 
L 128.658125 218.360402 
L 130.332125 216.227617 
L 132.006125 222.001742 
L 133.680125 223.614335 
L 135.354125 222.521933 
L 137.028125 220.129053 
L 138.702125 223.042124 
L 140.376125 222.886067 
L 142.050125 224.758756 
L 143.724125 222.157799 
L 145.398125 227.671828 
L 147.072125 228.087981 
L 152.094125 228.035962 
L 153.768125 227.827885 
L 155.442125 197.292651 
L 157.116125 162.855981 
L 158.790125 156.509646 
L 160.464125 161.295407 
L 162.138125 169.306354 
L 163.812125 179.658163 
L 167.160125 195.211885 
L 168.834125 197.084574 
L 170.508125 209.777244 
L 172.182125 209.881282 
L 173.856125 213.730699 
L 175.530125 214.406947 
L 177.204125 219.504823 
L 178.878125 219.348766 
L 180.552125 218.204344 
L 182.226125 220.857321 
L 183.900125 220.493187 
L 185.574125 227.931923 
L 187.248125 228.14 
L 192.270125 227.931923 
L 193.944125 211.23378 
L 195.618125 165.144823 
L 197.292125 161.659541 
L 198.966125 164.832708 
L 202.314125 185.172191 
L 203.988125 188.761512 
L 207.336125 199.633512 
L 210.684125 213.002431 
L 212.358125 213.782718 
L 214.032125 218.100306 
L 215.706125 217.89223 
L 217.380125 219.66088 
L 219.054125 221.065397 
L 220.728125 218.256364 
L 222.402125 220.597225 
L 224.076125 222.417895 
L 225.750125 223.042124 
L 227.424125 221.949722 
L 229.098125 225.330967 
L 230.772125 222.782029 
L 232.446125 226.787502 
L 234.120125 227.671828 
L 235.794125 228.035962 
L 240.816125 227.931923 
L 242.490125 227.723847 
L 244.164125 192.454871 
L 245.838125 165.92511 
L 247.512125 157.810124 
L 249.186125 164.520593 
L 250.860125 175.548651 
L 252.534125 185.068153 
L 254.208125 193.859388 
L 255.882125 198.645148 
L 257.556125 201.402163 
L 260.904125 210.973684 
L 262.578125 210.141378 
L 264.252125 217.163962 
L 265.926125 220.805301 
L 267.600125 217.007904 
L 269.274125 221.013378 
L 270.948125 225.591062 
L 272.622125 225.6951 
L 274.296125 220.753282 
L 275.970125 216.227617 
L 279.318125 220.129053 
L 280.992125 223.718373 
L 282.666125 224.186545 
L 284.340125 227.879904 
L 286.014125 228.14 
L 287.688125 227.879904 
L 289.362125 227.879904 
L 291.036125 227.203656 
L 292.710125 183.715656 
L 294.384125 170.190679 
L 296.058125 167.589722 
L 297.732125 174.560287 
L 299.406125 183.195464 
L 302.754125 195.992172 
L 304.428125 204.627349 
L 306.102125 205.355617 
L 307.776125 207.280325 
L 309.450125 211.597914 
L 311.124125 216.383675 
L 312.798125 216.227617 
L 314.472125 215.551368 
L 316.146125 221.065397 
L 317.820125 222.365876 
L 319.494125 221.325493 
L 321.168125 224.082507 
L 322.842125 224.758756 
L 324.516125 227.879904 
L 326.190125 228.087981 
L 329.538125 228.035962 
L 331.212125 228.14 
L 332.886125 227.983943 
L 334.560125 227.203656 
L 336.234125 180.386431 
L 337.908125 161.035311 
L 339.582125 165.612995 
L 341.256125 174.664325 
L 342.930125 179.866239 
L 344.604125 186.576708 
L 346.278125 190.946316 
L 349.626125 202.234469 
L 351.300125 208.892919 
L 352.974125 213.05445 
L 354.648125 223.874431 
L 356.322125 227.879904 
L 357.996125 227.775866 
L 361.344125 228.087981 
L 364.692125 227.931923 
L 366.366125 226.735483 
L 368.040125 179.502105 
L 369.714125 160.827234 
L 371.388125 161.503483 
L 373.062125 170.970967 
L 376.410125 184.495943 
L 378.084125 188.605455 
L 381.432125 203.691005 
L 383.106125 211.025703 
L 384.780125 213.05445 
L 386.454125 213.002431 
L 388.128125 213.314545 
L 388.128125 213.314545 
" style="fill:none;stroke:#ff7f0e;stroke-linecap:square;stroke-width:1.5;"/>
   </g>
   <g id="line2d_34">
    <path clip-path="url(#p57f47c0e57)" d="M 53.328125 228.14 
L 55.002125 192.038718 
L 56.676125 149.331005 
L 58.350125 145.169474 
L 60.024125 157.44599 
L 61.698125 164.936746 
L 63.372125 186.888823 
L 65.046125 203.795043 
L 66.720125 227.983943 
L 68.394125 228.14 
L 86.808125 228.087981 
L 88.482125 227.775866 
L 90.156125 227.619809 
L 91.830125 228.035962 
L 95.178125 228.035962 
L 96.852125 227.983943 
L 98.526125 228.087981 
L 100.200125 221.793665 
L 101.874125 180.646526 
L 103.548125 162.803962 
L 105.222125 166.029148 
L 106.896125 186.108536 
L 108.570125 214.406947 
L 110.244125 228.14 
L 113.592125 228.14 
L 125.310125 228.087981 
L 128.658125 227.879904 
L 130.332125 228.035962 
L 133.680125 227.879904 
L 135.354125 227.983943 
L 138.702125 227.879904 
L 142.050125 227.983943 
L 143.724125 228.035962 
L 145.398125 224.49866 
L 147.072125 190.634201 
L 148.746125 152.140038 
L 150.420125 165.248861 
L 152.094125 195.576019 
L 153.768125 212.794354 
L 155.442125 228.14 
L 168.834125 228.14 
L 170.508125 227.983943 
L 172.182125 227.983943 
L 173.856125 228.14 
L 178.878125 227.879904 
L 180.552125 228.14 
L 182.226125 227.931923 
L 183.900125 227.931923 
L 185.574125 200.413799 
L 187.248125 179.137971 
L 188.922125 169.878565 
L 190.596125 177.109225 
L 192.270125 199.581493 
L 193.944125 228.14 
L 215.706125 228.035962 
L 219.054125 227.827885 
L 222.402125 228.14 
L 225.750125 227.567789 
L 227.424125 227.671828 
L 229.098125 227.359713 
L 230.772125 227.879904 
L 232.446125 227.099617 
L 234.120125 225.174909 
L 235.794125 190.166029 
L 237.468125 165.873091 
L 239.142125 171.231062 
L 240.816125 184.756038 
L 242.490125 205.19956 
L 244.164125 228.087981 
L 247.512125 228.14 
L 249.186125 227.983943 
L 250.860125 228.14 
L 257.556125 228.087981 
L 259.230125 227.879904 
L 262.578125 228.087981 
L 264.252125 227.879904 
L 265.926125 228.087981 
L 267.600125 228.087981 
L 270.948125 227.463751 
L 272.622125 226.839522 
L 274.296125 227.879904 
L 277.644125 228.087981 
L 279.318125 227.879904 
L 280.992125 227.983943 
L 282.666125 227.099617 
L 284.340125 199.425435 
L 286.014125 181.999024 
L 287.688125 178.201627 
L 289.362125 190.68622 
L 291.036125 217.632134 
L 292.710125 228.14 
L 301.080125 228.14 
L 302.754125 227.983943 
L 304.428125 228.087981 
L 306.102125 228.035962 
L 309.450125 228.14 
L 311.124125 227.983943 
L 312.798125 228.14 
L 316.146125 227.983943 
L 317.820125 227.827885 
L 319.494125 228.14 
L 321.168125 227.671828 
L 322.842125 227.723847 
L 324.516125 224.810775 
L 326.190125 185.068153 
L 327.864125 161.971656 
L 329.538125 156.87378 
L 331.212125 170.398756 
L 332.886125 199.789569 
L 334.560125 219.244727 
L 336.234125 228.035962 
L 352.974125 227.931923 
L 354.648125 227.567789 
L 356.322125 219.764919 
L 357.996125 205.563694 
L 359.670125 189.801895 
L 361.344125 179.606144 
L 363.018125 185.068153 
L 364.692125 202.234469 
L 366.366125 221.273474 
L 368.040125 228.14 
L 384.780125 228.035962 
L 386.454125 227.879904 
L 388.128125 228.035962 
L 388.128125 228.035962 
" style="fill:none;stroke:#1f77b4;stroke-linecap:square;stroke-width:1.5;"/>
   </g>
   <g id="patch_9">
    <path d="M 53.328125 228.14 
L 53.328125 129.303636 
" style="fill:none;stroke:#000000;stroke-linecap:square;stroke-linejoin:miter;stroke-width:0.8;"/>
   </g>
   <g id="patch_10">
    <path d="M 388.128125 228.14 
L 388.128125 129.303636 
" style="fill:none;stroke:#000000;stroke-linecap:square;stroke-linejoin:miter;stroke-width:0.8;"/>
   </g>
   <g id="patch_11">
    <path d="M 53.328125 228.14 
L 388.128125 228.14 
" style="fill:none;stroke:#000000;stroke-linecap:square;stroke-linejoin:miter;stroke-width:0.8;"/>
   </g>
   <g id="patch_12">
    <path d="M 53.328125 129.303636 
L 388.128125 129.303636 
" style="fill:none;stroke:#000000;stroke-linecap:square;stroke-linejoin:miter;stroke-width:0.8;"/>
   </g>
   <g id="legend_2">
    <g id="patch_13">
     <path d="M 173.833594 151.981761 
L 267.622656 151.981761 
Q 269.622656 151.981761 269.622656 149.981761 
L 269.622656 136.303636 
Q 269.622656 134.303636 267.622656 134.303636 
L 173.833594 134.303636 
Q 171.833594 134.303636 171.833594 136.303636 
L 171.833594 149.981761 
Q 171.833594 151.981761 173.833594 151.981761 
z
" style="fill:#ffffff;opacity:0.8;stroke:#cccccc;stroke-linejoin:miter;"/>
    </g>
    <g id="line2d_35">
     <path d="M 175.833594 142.402074 
L 195.833594 142.402074 
" style="fill:none;stroke:#ff7f0e;stroke-linecap:square;stroke-width:1.5;"/>
    </g>
    <g id="line2d_36"/>
    <g id="text_33">
     <!-- R -->
     <g transform="translate(203.833594 145.902074)scale(0.1 -0.1)">
      <use xlink:href="#DejaVuSans-82"/>
     </g>
    </g>
    <g id="line2d_37">
     <path d="M 230.782031 142.402074 
L 250.782031 142.402074 
" style="fill:none;stroke:#1f77b4;stroke-linecap:square;stroke-width:1.5;"/>
    </g>
    <g id="line2d_38"/>
    <g id="text_34">
     <!-- A -->
     <g transform="translate(258.782031 145.902074)scale(0.1 -0.1)">
      <use xlink:href="#DejaVuSans-65"/>
     </g>
    </g>
   </g>
  </g>
 </g>
 <defs>
  <clipPath id="p140648bceb">
   <rect height="98.836364" width="334.8" x="53.328125" y="10.7"/>
  </clipPath>
  <clipPath id="p57f47c0e57">
   <rect height="98.836364" width="334.8" x="53.328125" y="129.303636"/>
  </clipPath>
 </defs>
</svg>
